<?xml version="1.0" encoding="UTF-8"?>
<svg version="1.1" xmlns="http://www.w3.org/2000/svg" width="512" height="512">
<path d="M0 0 C2.14904578 1.62185226 4.17033289 3.30169629 6.16796875 5.10546875 C6.79960937 5.6571875 7.43125 6.20890625 8.08203125 6.77734375 C16.32335456 14.42248622 20.70513925 24.35307464 21.37109375 35.5078125 C21.53364401 47.76681144 21.53364401 47.76681144 18.16796875 53.10546875 C15.54296875 55.35546875 15.54296875 55.35546875 13.16796875 57.10546875 C12.83796875 58.09546875 12.50796875 59.08546875 12.16796875 60.10546875 C13.81796875 60.76546875 15.46796875 61.42546875 17.16796875 62.10546875 C17.62594617 74.21642726 17.89112779 88.04195848 10.16796875 98.10546875 C8.0390625 98.7734375 8.0390625 98.7734375 6.16796875 99.10546875 C6.1421875 100.10707031 6.11640625 101.10867187 6.08984375 102.140625 C5.54656967 116.65406449 5.54656967 116.65406449 -0.4765625 122.77734375 C-3.74795134 125.77077144 -6.64063114 127.57413389 -10.83203125 129.10546875 C-13.41708054 146.87768265 -15.24983261 164.17939774 -5.4296875 180.1796875 C-3.71358048 182.24824681 -2.30303438 183.10746101 0.16796875 184.10546875 C0.82796875 183.44546875 1.48796875 182.78546875 2.16796875 182.10546875 C4.94930723 182.52921938 7.50816341 183.56934896 10.14453125 184.53125 C15.83462124 186.44853759 21.62431889 187.36434054 27.54296875 188.29296875 C29.16138672 188.55883789 29.16138672 188.55883789 30.8125 188.83007812 C36.46304658 189.77657253 36.46304658 189.77657253 42.16796875 190.10546875 C42.40726105 189.47005157 42.64655334 188.8346344 42.89309692 188.17996216 C54.26783267 157.97731582 65.65656322 127.78008862 77.10546875 97.60546875 C77.55674133 96.41600647 78.00801392 95.22654419 78.47296143 94.0010376 C80.58933425 88.42337522 82.70714918 82.8462702 84.82788086 77.27026367 C86.38184057 73.18256998 87.92621912 69.09144552 89.46313477 64.99731445 C89.82544693 64.03599609 90.18775909 63.07467773 90.56105042 62.08422852 C91.23276239 60.3016064 91.90164734 58.5179151 92.56700134 56.73291016 C98.9806747 39.75282529 109.45858292 29.30590136 125.55078125 21.1484375 C137.43967722 16.41062373 152.47474985 16.04122166 164.3984375 20.77734375 C180.04768821 28.28192096 191.03191753 37.24377598 197.2421875 53.7734375 C197.53756409 54.54610962 197.83294067 55.31878174 198.13726807 56.11486816 C199.15294231 58.77636298 200.16035777 61.44091161 201.16796875 64.10546875 C201.94106371 66.137287 202.71460161 68.16893676 203.48852539 70.20043945 C205.66808882 75.92719525 207.84013973 81.65677226 210.01000977 87.38720703 C211.45714356 91.20892503 212.90515536 95.0303092 214.35351562 98.8515625 C214.59913239 99.49958328 214.84474915 100.14760406 215.09780884 100.81526184 C215.59568854 102.12882654 216.09357266 103.44238957 216.59146118 104.75595093 C217.34025804 106.7315618 218.08896035 108.70720849 218.83764648 110.68286133 C223.43989363 122.82671946 228.05285546 134.96649529 232.66796875 147.10546875 C239.97473889 166.32624117 247.27006465 185.55133796 254.56063843 204.77825928 C259.52523385 217.87091772 264.49203608 230.96272368 269.46875 244.05078125 C269.89477509 245.17127869 270.32080017 246.29177612 270.75973511 247.44622803 C272.75247301 252.68709855 274.74581205 257.92773902 276.74023438 263.16796875 C280.580865 273.26308955 284.40608335 283.36399374 288.2109375 293.47265625 C288.60670486 294.5207547 289.00247223 295.56885315 289.41023254 296.64871216 C289.77138657 297.61010101 290.13254059 298.57148987 290.50463867 299.56201172 C290.82639572 300.41665009 291.14815277 301.27128845 291.47966003 302.15182495 C292.16796875 304.10546875 292.16796875 304.10546875 292.16796875 305.10546875 C280.94796875 305.10546875 269.72796875 305.10546875 258.16796875 305.10546875 C258.16796875 305.76546875 258.16796875 306.42546875 258.16796875 307.10546875 C257.51763672 307.10324814 256.86730469 307.10102753 256.19726562 307.09873962 C249.18408788 307.07593248 242.17092119 307.06126329 235.15771484 307.05053711 C232.56949433 307.04562738 229.98127637 307.03890106 227.39306641 307.0300293 C212.69556442 306.98105683 198.024959 307.10195919 183.33380508 307.53116417 C157.93761613 308.26883263 132.5444015 308.25836542 107.13916016 308.23583984 C101.85464648 308.23121806 96.57015726 308.2310693 91.28564453 308.23583984 C84.79452789 308.24164401 78.30343143 308.24254637 71.81231308 308.23928452 C69.37000397 308.2386221 66.92769397 308.23941943 64.48538589 308.24176407 C61.09586536 308.24431381 57.70641021 308.24042138 54.31689453 308.23486328 C53.33100342 308.23688751 52.3451123 308.23891174 51.3293457 308.24099731 C45.21919588 308.22251032 39.23520288 307.82926405 33.16796875 307.10546875 C33.16796875 306.44546875 33.16796875 305.78546875 33.16796875 305.10546875 C21.94796875 305.10546875 10.72796875 305.10546875 -0.83203125 305.10546875 C-0.83203125 304.44546875 -0.83203125 303.78546875 -0.83203125 303.10546875 C-63.20203125 303.10546875 -125.57203125 303.10546875 -189.83203125 303.10546875 C-179.60062405 215.11536684 -179.60062405 215.11536684 -164.76171875 201.5625 C-152.1417198 192.0336344 -135.07233829 191.03930562 -119.9309082 188.6550293 C-117.54429879 188.2773696 -115.15887115 187.89281766 -112.7734375 187.5078125 C-111.68743004 187.34054909 -111.68743004 187.34054909 -110.57948303 187.16990662 C-106.7444164 186.54938446 -103.40426644 185.60856692 -99.83203125 184.10546875 C-97.40234375 184.19140625 -97.40234375 184.19140625 -94.95703125 184.48046875 C-91.89136438 184.5306508 -90.3326465 184.44205666 -87.76953125 182.71875 C-79.45955882 173.8894043 -77.52141667 161.99434151 -77.68359375 150.28515625 C-77.85627242 146.58619731 -78.12469139 142.91143875 -78.51953125 139.23046875 C-78.64714844 137.99554688 -78.77476563 136.760625 -78.90625 135.48828125 C-80.03654623 131.35816928 -81.60161955 129.85643894 -84.83203125 127.10546875 C-85.61964844 126.41324219 -86.40726562 125.72101563 -87.21875 125.0078125 C-88.75840972 123.69295878 -90.30009503 122.38047344 -91.84375 121.0703125 C-96.12243772 116.84206118 -96.21038747 112.67215129 -96.45703125 106.85546875 C-96.49570313 106.11039062 -96.534375 105.3653125 -96.57421875 104.59765625 C-96.66808233 102.76731635 -96.75112843 100.93642732 -96.83203125 99.10546875 C-97.45980469 98.97140625 -98.08757812 98.83734375 -98.734375 98.69921875 C-101.72161901 97.85366737 -102.28097287 96.80296158 -103.83203125 94.10546875 C-106.93517675 86.29563844 -108.03635167 78.77664462 -108.14453125 70.41796875 C-108.17353516 69.65935547 -108.20253906 68.90074219 -108.23242188 68.11914062 C-108.2578125 65.90625 -108.2578125 65.90625 -107.83203125 62.10546875 C-105.8125 60.0859375 -105.8125 60.0859375 -103.83203125 59.10546875 C-104.4137797 53.79678385 -104.4137797 53.79678385 -106.83203125 49.10546875 C-108.02873607 36.81837162 -107.35021546 21.94585968 -100.08203125 11.48046875 C-93.5718034 4.09136014 -85.93764319 0.47400606 -76.734375 -2.59375 C-71.93919068 -4.24298834 -68.16230743 -6.58164175 -64 -9.46875 C-43.71012786 -22.81253978 -18.04166962 -12.06925485 0 0 Z " fill="#EEB8AB" transform="translate(204.83203125,129.89453125)"/>
<path d="M0 0 C2.14904578 1.62185226 4.17033289 3.30169629 6.16796875 5.10546875 C6.79960937 5.6571875 7.43125 6.20890625 8.08203125 6.77734375 C16.32335456 14.42248622 20.70513925 24.35307464 21.37109375 35.5078125 C21.53364401 47.76681144 21.53364401 47.76681144 18.16796875 53.10546875 C15.54296875 55.35546875 15.54296875 55.35546875 13.16796875 57.10546875 C12.83796875 58.09546875 12.50796875 59.08546875 12.16796875 60.10546875 C13.81796875 60.76546875 15.46796875 61.42546875 17.16796875 62.10546875 C17.62594617 74.21642726 17.89112779 88.04195848 10.16796875 98.10546875 C8.0390625 98.7734375 8.0390625 98.7734375 6.16796875 99.10546875 C6.1421875 100.10707031 6.11640625 101.10867187 6.08984375 102.140625 C5.54656967 116.65406449 5.54656967 116.65406449 -0.4765625 122.77734375 C-3.74795134 125.77077144 -6.64063114 127.57413389 -10.83203125 129.10546875 C-13.41708054 146.87768265 -15.24983261 164.17939774 -5.4296875 180.1796875 C-3.71358048 182.24824681 -2.30303438 183.10746101 0.16796875 184.10546875 C0.82796875 183.44546875 1.48796875 182.78546875 2.16796875 182.10546875 C4.95044509 182.52903072 7.50798395 183.57099418 10.14453125 184.53515625 C15.83293861 186.45304206 21.62292409 187.32692103 27.54296875 188.23046875 C29.67610737 188.56432916 31.80893659 188.90017432 33.94140625 189.23828125 C34.87388184 189.38152832 35.80635742 189.52477539 36.76708984 189.67236328 C39.16796875 190.10546875 39.16796875 190.10546875 42.16796875 191.10546875 C42.16796875 191.76546875 42.16796875 192.42546875 42.16796875 193.10546875 C42.72484375 193.15445313 43.28171875 193.2034375 43.85546875 193.25390625 C56.80342412 194.52245593 67.39059451 198.02020762 76.16796875 208.10546875 C73.12151035 209.72166499 70.0564899 210.87434534 66.79296875 211.98046875 C55.07854888 216.22752934 49.84744857 223.16200416 44.46484375 234.04296875 C41.27061063 241.58597709 40.41471713 249.09684228 39.4765625 257.1875 C39.32639175 258.43802658 39.17622101 259.68855316 39.02149963 260.97697449 C38.62507183 264.28173531 38.23312645 267.58695518 37.84399414 270.89257812 C37.29356316 275.56645265 36.73876868 280.23978851 36.1787262 284.91252136 C35.8811148 287.39718935 35.58718216 289.88230119 35.29722595 292.36787415 C35.1636116 293.4863121 35.02999725 294.60475006 34.89233398 295.75708008 C34.77623276 296.7441243 34.66013153 297.73116852 34.54051208 298.74812317 C34.16796875 301.10546875 34.16796875 301.10546875 33.16796875 303.10546875 C-40.42203125 303.10546875 -114.01203125 303.10546875 -189.83203125 303.10546875 C-179.60062405 215.11536684 -179.60062405 215.11536684 -164.76171875 201.5625 C-152.1417198 192.0336344 -135.07233829 191.03930562 -119.9309082 188.6550293 C-117.54429879 188.2773696 -115.15887115 187.89281766 -112.7734375 187.5078125 C-111.68743004 187.34054909 -111.68743004 187.34054909 -110.57948303 187.16990662 C-106.7444164 186.54938446 -103.40426644 185.60856692 -99.83203125 184.10546875 C-97.40234375 184.19140625 -97.40234375 184.19140625 -94.95703125 184.48046875 C-91.89136438 184.5306508 -90.3326465 184.44205666 -87.76953125 182.71875 C-79.45955882 173.8894043 -77.52141667 161.99434151 -77.68359375 150.28515625 C-77.85627242 146.58619731 -78.12469139 142.91143875 -78.51953125 139.23046875 C-78.64714844 137.99554688 -78.77476563 136.760625 -78.90625 135.48828125 C-80.03654623 131.35816928 -81.60161955 129.85643894 -84.83203125 127.10546875 C-85.61964844 126.41324219 -86.40726562 125.72101563 -87.21875 125.0078125 C-88.75840972 123.69295878 -90.30009503 122.38047344 -91.84375 121.0703125 C-96.12243772 116.84206118 -96.21038747 112.67215129 -96.45703125 106.85546875 C-96.49570313 106.11039062 -96.534375 105.3653125 -96.57421875 104.59765625 C-96.66808233 102.76731635 -96.75112843 100.93642732 -96.83203125 99.10546875 C-97.45980469 98.97140625 -98.08757812 98.83734375 -98.734375 98.69921875 C-101.72161901 97.85366737 -102.28097287 96.80296158 -103.83203125 94.10546875 C-106.93517675 86.29563844 -108.03635167 78.77664462 -108.14453125 70.41796875 C-108.17353516 69.65935547 -108.20253906 68.90074219 -108.23242188 68.11914062 C-108.2578125 65.90625 -108.2578125 65.90625 -107.83203125 62.10546875 C-105.8125 60.0859375 -105.8125 60.0859375 -103.83203125 59.10546875 C-104.4137797 53.79678385 -104.4137797 53.79678385 -106.83203125 49.10546875 C-108.02873607 36.81837162 -107.35021546 21.94585968 -100.08203125 11.48046875 C-93.5718034 4.09136014 -85.93764319 0.47400606 -76.734375 -2.59375 C-71.93919068 -4.24298834 -68.16230743 -6.58164175 -64 -9.46875 C-43.71012786 -22.81253978 -18.04166962 -12.06925485 0 0 Z " fill="#EEB7AA" transform="translate(204.83203125,129.89453125)"/>
<path d="M0 0 C2.74182673 0.64284257 5.33347239 1.46313278 7.9765625 2.4296875 C13.66496986 4.34757331 19.45495534 5.22145228 25.375 6.125 C27.50813862 6.45886041 29.64096784 6.79470557 31.7734375 7.1328125 C32.70591309 7.27605957 33.63838867 7.41930664 34.59912109 7.56689453 C37 8 37 8 40 9 C40 9.66 40 10.32 40 11 C40.556875 11.04898437 41.11375 11.09796875 41.6875 11.1484375 C54.63545537 12.41698718 65.22262576 15.91473887 74 26 C70.9535416 27.61619624 67.88852115 28.76887659 64.625 29.875 C52.91058013 34.12206059 47.67947982 41.05653541 42.296875 51.9375 C39.10264188 59.48050834 38.24674838 66.99137353 37.30859375 75.08203125 C37.158423 76.33255783 37.00825226 77.58308441 36.85353088 78.87150574 C36.45710308 82.17626656 36.0651577 85.48148643 35.67602539 88.78710938 C35.12559441 93.4609839 34.57079993 98.13431976 34.01075745 102.80705261 C33.71314605 105.2917206 33.41921341 107.77683244 33.1292572 110.2624054 C32.99564285 111.38084335 32.8620285 112.49928131 32.72436523 113.65161133 C32.60826401 114.63865555 32.49216278 115.62569977 32.37254333 116.64265442 C32 119 32 119 31 121 C-42.59 121 -116.18 121 -192 121 C-181.7685928 33.00989809 -181.7685928 33.00989809 -166.9296875 19.45703125 C-154.30968855 9.92816565 -137.24030704 8.93383687 -122.09887695 6.54956055 C-119.71226754 6.17190085 -117.3268399 5.78734891 -114.94140625 5.40234375 C-114.21740128 5.29083481 -113.4933963 5.17932587 -112.74745178 5.06443787 C-108.91035744 4.44358762 -105.58068091 3.4816751 -102 2 C-99.6875 2.375 -99.6875 2.375 -98 3 C-98.48750732 3.33249756 -98.97501465 3.66499512 -99.47729492 4.00756836 C-101.7971886 7.04310665 -101.40868214 10.21210826 -101.36328125 13.87890625 C-101.36377975 14.64677963 -101.36427826 15.41465302 -101.36479187 16.20579529 C-101.36245333 17.827246 -101.35273769 19.44870048 -101.33618164 21.07006836 C-101.3125541 23.55680643 -101.31562623 26.04247483 -101.32226562 28.52929688 C-101.31668994 30.10417308 -101.30958075 31.67904476 -101.30078125 33.25390625 C-101.30169266 33.99975479 -101.30260406 34.74560333 -101.30354309 35.51405334 C-101.38225933 39.71511979 -101.38225933 39.71511979 -99 43 C-92.93894406 42.68099706 -87.67767111 41.05354581 -82 39 C-76.52347293 50.50952902 -71.61836381 62.24964933 -66.6875 74 C-65.06742848 77.85459705 -63.44607216 81.70865239 -61.82421875 85.5625 C-61.23095291 86.97293579 -61.23095291 86.97293579 -60.6257019 88.41186523 C-56.46396922 98.29464243 -52.23843291 108.14991615 -48 118 C-46.32528541 115.48792811 -45.29391218 113.46683104 -44.20336914 110.69750977 C-43.85826797 109.82622437 -43.51316681 108.95493896 -43.15760803 108.05725098 C-42.78719894 107.11152222 -42.41678986 106.16579346 -42.03515625 105.19140625 C-41.64561264 104.20466919 -41.25606903 103.21793213 -40.85472107 102.20129395 C-40.02007963 100.08566622 -39.18704946 97.96940225 -38.35546875 95.85256958 C-37.0626144 92.5627911 -35.76438896 89.27517766 -34.46484375 85.98803711 C-30.7366624 76.54912848 -27.02444586 67.10517468 -23.40234375 57.625 C-22.89527591 56.30518991 -22.38804187 54.98544366 -21.88061523 53.66577148 C-20.98086297 51.31750559 -20.0905677 48.96558752 -19.21118164 46.60961914 C-18.62711548 45.08776001 -18.62711548 45.08776001 -18.03125 43.53515625 C-17.70705078 42.672854 -17.38285156 41.81055176 -17.04882812 40.92211914 C-16 39 -16 39 -13 38 C-10.19634514 39.12234221 -7.57411781 40.49553523 -4.88671875 41.87109375 C-1.6720377 43.12825589 0.57798456 43.35233727 4 43 C6.51704805 40.48295195 6.24669599 38.92327101 6.27789307 35.48840332 C6.2738446 34.73941772 6.26979614 33.99043213 6.265625 33.21875 C6.26849518 32.0648175 6.26849518 32.0648175 6.27142334 30.88757324 C6.27278508 29.2601692 6.26908939 27.6327543 6.26074219 26.00537109 C6.25004221 23.50984369 6.26063751 21.01503618 6.2734375 18.51953125 C6.2721159 16.94010257 6.2695535 15.36067434 6.265625 13.78125 C6.27169769 12.65777161 6.27169769 12.65777161 6.27789307 11.51159668 C6.38187202 7.29688852 6.38187202 7.29688852 4 4 C2.01178687 3.60235737 0.01055661 3.26224651 -2 3 C-1.34 2.01 -0.68 1.02 0 0 Z " fill="#5D5D5D" transform="translate(207,312)"/>
<path d="M0 0 C8.88902192 6.44264153 14.2355135 14.45061932 18.07421875 24.66796875 C18.36959534 25.44064087 18.66497192 26.21331299 18.96929932 27.00939941 C19.98497356 29.67089423 20.99238902 32.33544286 22 35 C22.77309496 37.03181825 23.54663286 39.06346801 24.32055664 41.0949707 C26.50012007 46.8217265 28.67217098 52.55130351 30.84204102 58.28173828 C32.28917481 62.10345628 33.73718661 65.92484045 35.18554688 69.74609375 C35.55397202 70.71812492 35.55397202 70.71812492 35.92984009 71.70979309 C36.42771979 73.02335779 36.92560391 74.33692082 37.42349243 75.65048218 C38.17228929 77.62609305 38.9209916 79.60173974 39.66967773 81.57739258 C44.27192488 93.72125071 48.88488671 105.86102654 53.5 118 C60.80677014 137.22077242 68.1020959 156.44586921 75.39266968 175.67279053 C80.3572651 188.76544897 85.32406733 201.85725493 90.30078125 214.9453125 C90.72680634 216.06580994 91.15283142 217.18630737 91.59176636 218.34075928 C93.58450426 223.5816298 95.5778433 228.82227027 97.57226562 234.0625 C101.41289625 244.1576208 105.2381146 254.25852499 109.04296875 264.3671875 C109.6366198 265.93933517 109.6366198 265.93933517 110.24226379 267.54324341 C110.60341782 268.50463226 110.96457184 269.46602112 111.33666992 270.45654297 C111.65842697 271.31118134 111.98018402 272.1658197 112.31169128 273.0463562 C113 275 113 275 113 276 C101.78 276 90.56 276 79 276 C78.52949219 272.33648437 78.05898438 268.67296875 77.57421875 264.8984375 C77.1088967 261.30710877 76.64157768 257.71604508 76.17407227 254.125 C75.85297799 251.6503346 75.53392423 249.17540347 75.21704102 246.70019531 C72.45502261 214.64620036 72.45502261 214.64620036 56.0390625 188.24609375 C49.70284526 183.54692892 42.54823191 181.86103872 35 180 C6.46476318 172.82308172 6.46476318 172.82308172 0 163 C-5.09829977 152.8188968 -5.34619603 143.1810498 -5 132 C-4.979375 130.87851562 -4.95875 129.75703125 -4.9375 128.6015625 C-4.54140776 123.78656617 -3.97843359 121.01287445 -0.55859375 117.47265625 C2.375 115.125 2.375 115.125 5.2734375 113.1328125 C9.62994866 109.72499718 11.69767105 106.66968032 12.6875 101.203125 C12.89665168 98.55735623 13.10497866 95.91152214 13.3125 93.265625 C13.6528125 91.64914063 13.6528125 91.64914063 14 90 C15.92578125 88.84375 15.92578125 88.84375 18 88 C19.31161476 85.81937091 19.31161476 85.81937091 20.1875 83.25 C20.67283203 81.98929688 20.67283203 81.98929688 21.16796875 80.703125 C22.92883233 74.9823851 23.13213687 69.54949065 23.0625 63.625 C23.05573242 62.52091797 23.05573242 62.52091797 23.04882812 61.39453125 C23.03715142 59.59631842 23.01922011 57.79814803 23 56 C22.01 56 21.02 56 20 56 C19.91363281 54.98421875 19.82726562 53.9684375 19.73828125 52.921875 C18.16679396 36.73318679 12.83682836 24.29581148 0.296875 13.5390625 C-9.85296362 5.41093971 -23.56975599 0.12441967 -36.70703125 0.72265625 C-52.42629809 2.62396451 -66.09389588 10.24066921 -76.06640625 22.55078125 C-82.25954242 31.07119198 -84.49288014 38.49799591 -85.81640625 48.76757812 C-86.1196031 50.8603334 -86.55139886 52.93352717 -87 55 C-87.99 55.66 -88.98 56.32 -90 57 C-90.31051082 59.57845747 -90.42549235 61.8612089 -90.375 64.4375 C-90.36702393 65.15526611 -90.35904785 65.87303223 -90.35083008 66.61254883 C-90.14374437 74.4302526 -88.91295918 82.6540944 -84 89 C-83.01 89.66 -82.02 90.32 -81 91 C-80.5251941 93.72573759 -80.17492813 96.38097668 -79.875 99.125 C-79.06169703 104.95306345 -78.28053696 108.75733751 -73.625 112.75 C-72.10758762 113.86705276 -70.56777954 114.95481364 -69 116 C-64.86838914 119.44300905 -63.72215158 121.25091577 -63.17871094 126.57421875 C-60.98291401 156.37946224 -60.98291401 156.37946224 -69.7265625 167.12109375 C-77.66669146 174.97953414 -90.7760199 178.00616555 -101.5859375 179.3125 C-104.84893196 178.89010589 -105.96177011 177.5721296 -108.25 175.25 C-116.65162866 167.44061729 -126.04269581 165.90561812 -137 164 C-136.35137168 158.31691928 -134.39472644 153.35105111 -132.34375 148.05859375 C-131.78266792 146.59030121 -131.78266792 146.59030121 -131.21025085 145.09234619 C-129.97853712 141.87210979 -128.73918139 138.65486926 -127.5 135.4375 C-126.6364808 133.18294545 -125.77361486 130.92814059 -124.91137695 128.6730957 C-123.58449847 125.20317109 -122.25718884 121.73341789 -120.92781067 118.26445007 C-116.9989968 108.01191795 -113.11115169 97.74423889 -109.23748779 87.47076416 C-108.18921418 84.69204388 -107.13908036 81.91403354 -106.08837891 79.13623047 C-103.05555642 71.11565848 -100.02957048 63.09284627 -97.04005432 55.05601501 C-95.78474947 51.6831703 -94.52393135 48.31239927 -93.26260376 44.94180298 C-92.68453128 43.39222689 -92.10917522 41.84163385 -91.53695679 40.28988647 C-83.54142117 18.60993333 -75.03325287 2.8992095 -53.6171875 -7.95703125 C-34.98491604 -15.38213047 -16.15492626 -10.81578042 0 0 Z " fill="#E6E5E5" transform="translate(384,159)"/>
<path d="M0 0 C11.79528051 -0.7108267 24.31924122 3.86037309 34.01171875 10.25 C34.800625 10.76304687 35.58953125 11.27609375 36.40234375 11.8046875 C46.82949797 19.21718829 54.04529057 30.74969385 56.63671875 43.26953125 C56.99241724 46.09659319 57.11268523 48.77848068 57.07421875 51.625 C57.06519531 52.49898437 57.05617188 53.37296875 57.046875 54.2734375 C57.03527344 54.92570312 57.02367187 55.57796875 57.01171875 56.25 C58.00171875 56.25 58.99171875 56.25 60.01171875 56.25 C63.5568902 63.34034289 61.00050706 74.37918086 58.93359375 81.671875 C57.70337383 85.11232054 56.4423629 87.51552533 54.01171875 90.25 C53.02171875 90.25 52.03171875 90.25 51.01171875 90.25 C50.9859375 91.26320313 50.96015625 92.27640625 50.93359375 93.3203125 C50.87727694 94.67191597 50.81993042 96.02347681 50.76171875 97.375 C50.74753906 98.04015625 50.73335938 98.7053125 50.71875 99.390625 C50.42757424 105.33061057 48.36309686 108.8831523 44.23046875 113.04296875 C43.66328125 113.50316406 43.09609375 113.96335937 42.51171875 114.4375 C41.94453125 114.90542969 41.37734375 115.37335938 40.79296875 115.85546875 C39.01171875 117.25 39.01171875 117.25 36.82421875 118.625 C34.79709251 120.10714806 34.79709251 120.10714806 34.60546875 122.51953125 C34.57453125 123.35871094 34.54359375 124.19789063 34.51171875 125.0625 C33.92522627 128.51628907 33.53905718 129.8355976 30.75 132.02734375 C27.56022664 133.6328772 24.3400491 134.95585184 21.01171875 136.25 C19.72650813 136.82087493 18.44399765 137.39786207 17.1640625 137.98046875 C9.1550185 141.50114623 3.53138686 143.3834754 -4.85400391 140.14233398 C-8.07751921 138.74075094 -11.2531001 137.26297828 -14.42578125 135.75 C-15.52599609 135.23824219 -16.62621094 134.72648438 -17.75976562 134.19921875 C-25.8064342 130.43184705 -25.8064342 130.43184705 -26.98828125 129.25 C-27.06046875 128.57710937 -27.13265625 127.90421875 -27.20703125 127.2109375 C-27.65328569 123.10787584 -28.05830788 120.22008987 -30.98046875 117.171875 C-32.52086825 116.01026227 -34.09312332 114.88925227 -35.69921875 113.8203125 C-39.24133385 111.39039736 -41.58630609 109.62847143 -42.81640625 105.41015625 C-42.955625 104.38792969 -43.09484375 103.36570312 -43.23828125 102.3125 C-43.3878125 101.29285156 -43.53734375 100.27320313 -43.69140625 99.22265625 C-43.95955691 96.53762131 -44.04785003 93.94548742 -43.98828125 91.25 C-44.58640625 91.023125 -45.18453125 90.79625 -45.80078125 90.5625 C-50.7687535 87.58171665 -52.03893294 81.90402363 -53.4140625 76.578125 C-54.10229105 72.58920849 -54.3183668 68.72934639 -54.36328125 64.6875 C-54.37705811 63.98455811 -54.39083496 63.28161621 -54.4050293 62.55737305 C-54.38671875 60.55859375 -54.38671875 60.55859375 -53.98828125 57.25 C-52.99828125 56.59 -52.00828125 55.93 -50.98828125 55.25 C-50.42801003 52.43382191 -50.01640826 49.71759295 -49.67578125 46.875 C-47.47039404 31.74034273 -40.41681568 21.29282612 -28.73828125 11.5 C-20.20804565 5.19180129 -10.47260818 1.3167916 0 0 Z " fill="#EEB7AA" transform="translate(346.98828125,158.75)"/>
<path d="M0 0 C2.23965324 2.23067668 4.08039599 4.47420524 6 7 C6.556875 6.443125 7.11375 5.88625 7.6875 5.3125 C8.8321875 4.1678125 8.8321875 4.1678125 10 3 C10.99 1.824375 10.99 1.824375 12 0.625 C23.20656613 -9.18074536 35.70665754 -10.70223177 50 -10 C61.77300513 -8.88009464 72.51011553 -5.56849451 81 3 C89.68205172 14.54845429 91.17990462 24.21720947 91.1875 38.375 C91.19974609 39.56867188 91.21199219 40.76234375 91.22460938 41.9921875 C91.23517172 48.35776346 90.9098993 53.91549868 89 60 C84.74970147 60.88032073 80.76006073 61.08715866 76.44610596 61.03318787 C65.87507211 60.90882882 55.33327835 61.10707169 44.76881409 61.42396736 C20.76331968 62.12662185 -3.23483118 62.1192629 -27.24853516 62.06866455 C-32.775061 62.05818664 -38.30159196 62.0538162 -43.828125 62.04882812 C-54.55209602 62.03830082 -65.27604547 62.02137926 -76 62 C-76.49514889 59.61750038 -76.98538515 57.23416068 -77.47290039 54.85009766 C-77.61235329 54.18160294 -77.75180618 53.51310822 -77.89548492 52.82435608 C-79.01967141 47.29628708 -79.50787566 42.00395291 -79.4375 36.375 C-79.42396484 35.03526123 -79.42396484 35.03526123 -79.41015625 33.66845703 C-79.08541037 21.19956817 -75.56625285 11.24681871 -67 2 C-48.86587318 -14.14929702 -19.15346885 -14.66707074 0 0 Z " fill="#F0EFEF" transform="translate(344,376)"/>
<path d="M0 0 C2.63682613 2.44195676 4.40427013 4.95523445 6.125 8.125 C6.785 8.455 7.445 8.785 8.125 9.125 C8.3725 8.1040625 8.3725 8.1040625 8.625 7.0625 C11.3737964 1.67944039 16.30457144 -2.34504156 21.8125 -4.8125 C29.28464737 -7.14662855 37.42706328 -7.07349144 44.5625 -3.8125 C50.79011089 -0.19320666 54.61934372 4.00656464 57.0625 10.8125 C61.02088131 26.36328371 52.70166174 41.95153993 45.125 55.125 C39.55696817 63.98663729 32.91356813 72.18118431 26.125 80.125 C25.34898437 81.03636719 24.57296875 81.94773437 23.7734375 82.88671875 C14.94384589 93.00088305 14.94384589 93.00088305 8.28515625 94.9609375 C4.07060103 95.17974012 2.87663763 93.9427921 -0.25 91.1875 C-1.20519531 90.34832031 -2.16039062 89.50914062 -3.14453125 88.64453125 C-4.04558594 87.81308594 -4.94664062 86.98164063 -5.875 86.125 C-6.58011719 85.48949219 -7.28523438 84.85398437 -8.01171875 84.19921875 C-14.05689096 78.47285887 -19.00349555 71.84558284 -23.875 65.125 C-24.30635254 64.53267578 -24.73770508 63.94035156 -25.18212891 63.33007812 C-34.65544377 50.17013867 -43.26133829 35.17611452 -43.1875 18.5625 C-43.20361328 17.83353516 -43.21972656 17.10457031 -43.23632812 16.35351562 C-43.24181627 10.25618468 -41.64358099 6.24729719 -37.6875 1.5 C-26.9437241 -7.57252187 -11.26038736 -9.17863507 0 0 Z " fill="#FE3232" transform="translate(258.875,64.875)"/>
<path d="M0 0 C3.42834233 1.2027644 6.72458897 2.62277676 10.01953125 4.14501953 C11.43858595 4.78482203 12.85786366 5.42413011 14.27734375 6.06298828 C16.49843366 7.06921976 18.71742088 8.07948699 20.93261719 9.09863281 C23.08136106 10.08446546 25.23713642 11.05329621 27.39453125 12.02001953 C28.05300049 12.32827667 28.71146973 12.63653381 29.38989258 12.95413208 C33.228628 14.65863318 35.68636047 15.34729074 39.70703125 13.94970703 C40.30515625 13.59908203 40.90328125 13.24845703 41.51953125 12.88720703 C44.86114602 11.45508642 48.15923738 11.46841717 51.70703125 11.94970703 C53.70703125 12.94970703 55.70703125 13.94970703 57.70703125 14.94970703 C62.47336226 14.55689152 66.31605384 12.9748559 70.64453125 11.00830078 C71.96475117 10.41890065 73.28506658 9.82971439 74.60546875 9.24072266 C76.66095643 8.31398377 78.71473248 7.38369876 80.76660156 6.44897461 C82.76341703 5.5424815 84.76598063 4.64978732 86.76953125 3.75830078 C88.55037109 2.95090454 88.55037109 2.95090454 90.3671875 2.12719727 C93.8006188 0.91671195 96.10506938 0.47487394 99.70703125 0.94970703 C101.55712891 1.95947266 101.55712891 1.95947266 102.70703125 3.94970703 C103.00524595 6.64301714 103.12754786 9.10046497 103.10546875 11.79345703 C103.10833893 12.55895874 103.11120911 13.32446045 103.11416626 14.11315918 C103.11620625 15.7303949 103.11068088 17.34765533 103.09814453 18.96484375 C103.08208883 21.44082795 103.09799422 23.91517988 103.1171875 26.39111328 C103.11520506 27.96273147 103.11136135 29.53434864 103.10546875 31.10595703 C103.11154144 31.84664429 103.11761414 32.58733154 103.12387085 33.35046387 C103.05416297 38.44277653 103.05416297 38.44277653 101.35888672 40.91845703 C98.73238221 42.55817844 96.73973386 42.27837431 93.70703125 41.94970703 C90.78515625 40.85595703 90.78515625 40.85595703 87.95703125 39.44970703 C84.4816249 37.57475455 84.4816249 37.57475455 80.70703125 36.94970703 C80.48311707 37.52202057 80.25920288 38.09433411 80.02850342 38.68399048 C59.00464548 92.41406029 59.00464548 92.41406029 48.70703125 117.94970703 C45.67589274 114.3852913 44.00531964 110.34740163 42.22265625 106.07470703 C41.88981125 105.28914429 41.55696625 104.50358154 41.21403503 103.69421387 C40.12293735 101.11496621 39.03988532 98.5324252 37.95703125 95.94970703 C37.20360592 94.16373114 36.44977652 92.37792566 35.69555664 90.59228516 C33.35683088 85.04861136 31.03010416 79.49995582 28.70703125 73.94970703 C28.33060486 73.0504248 27.95417847 72.15114258 27.56634521 71.22460938 C22.92854867 60.14045956 18.30955811 49.04854578 13.70703125 37.94970703 C13.10810059 38.15611816 12.50916992 38.3625293 11.89208984 38.57519531 C11.09625488 38.8457373 10.30041992 39.1162793 9.48046875 39.39501953 C8.30363525 39.79744873 8.30363525 39.79744873 7.10302734 40.20800781 C3.54301351 41.31003777 0.44391281 41.82084905 -3.29296875 41.94970703 C-4.99243164 40.94555664 -4.99243164 40.94555664 -6.29296875 38.94970703 C-6.60340447 36.26833022 -6.73723944 33.8235891 -6.7265625 31.14111328 C-6.73442528 29.99641823 -6.73442528 29.99641823 -6.7424469 28.82859802 C-6.74886629 27.21557837 -6.74753111 25.60251189 -6.73901367 23.98950195 C-6.73051017 21.52421443 -6.75925132 19.06124954 -6.79101562 16.59619141 C-6.79262796 15.02783272 -6.79204949 13.45946995 -6.7890625 11.89111328 C-6.80029648 11.15558731 -6.81153046 10.42006134 -6.82310486 9.6622467 C-6.77696941 6.26518662 -6.48601208 4.2371466 -4.57446289 1.39086914 C-2.29296875 -0.05029297 -2.29296875 -0.05029297 0 0 Z " fill="#9ACACA" transform="translate(111.29296875,314.05029296875)"/>
<path d="M0 0 C2.14904578 1.62185226 4.17033289 3.30169629 6.16796875 5.10546875 C6.79960937 5.6571875 7.43125 6.20890625 8.08203125 6.77734375 C16.32335456 14.42248622 20.70513925 24.35307464 21.37109375 35.5078125 C21.47417333 43.28173105 21.35994249 48.60768757 16.79296875 55.04296875 C14.41675026 56.59665007 12.97365709 56.44910493 10.16796875 56.10546875 C7.66796875 54.27734375 7.66796875 54.27734375 5.16796875 51.85546875 C-4.33546537 42.76780987 -12.55880633 39.06454133 -25.89453125 38.66796875 C-42.68204469 38.13225832 -60.44243612 33.16530257 -74.08984375 23.2421875 C-75.76449282 21.92332221 -75.76449282 21.92332221 -77.83203125 22.10546875 C-78.90188367 23.79230993 -79.88542265 25.53400613 -80.83203125 27.29296875 C-85.95385049 36.3365157 -92.11933728 45.08118052 -99.83203125 52.10546875 C-102.51953125 52.60546875 -102.51953125 52.60546875 -104.83203125 52.10546875 C-109.07870255 45.7354618 -107.44333626 35.05256877 -106.14453125 27.70703125 C-103.91917079 17.08554558 -100.0158993 9.73828804 -91.03515625 3.4140625 C-86.54361247 0.74621292 -81.67406875 -0.94718542 -76.734375 -2.59375 C-71.93919068 -4.24298834 -68.16230743 -6.58164175 -64 -9.46875 C-43.71012786 -22.81253978 -18.04166962 -12.06925485 0 0 Z " fill="#54463F" transform="translate(204.83203125,129.89453125)"/>
<path d="M0 0 C11.79528051 -0.7108267 24.31924122 3.86037309 34.01171875 10.25 C34.800625 10.76304687 35.58953125 11.27609375 36.40234375 11.8046875 C46.83246913 19.21930044 54.06944454 30.76927402 56.63671875 43.30078125 C56.9741053 45.95418589 57.11468354 48.45432379 57.07421875 51.125 C57.06519531 51.90617187 57.05617188 52.68734375 57.046875 53.4921875 C57.03527344 54.07226562 57.02367187 54.65234375 57.01171875 55.25 C45.24148058 54.4987082 36.95622763 46.56365397 29.1875 38.3125 C24.750433 32.94778423 22.89012085 26.87965448 21.01171875 20.25 C20.59212891 21.50103516 20.59212891 21.50103516 20.1640625 22.77734375 C15.80867179 35.00324757 10.75383727 42.43247623 -0.98828125 48.25 C-1.71273437 48.62898438 -2.4371875 49.00796875 -3.18359375 49.3984375 C-16.95512872 55.78036834 -35.03005428 56.49521684 -49.98828125 56.25 C-50.66710307 42.67356367 -46.65011369 30.35613225 -37.73828125 20.0625 C-27.34897618 9.14347707 -15.10498084 1.89925103 0 0 Z " fill="#857266" transform="translate(346.98828125,158.75)"/>
<path d="M0 0 C0.97001953 0.41894531 1.94003906 0.83789062 2.93945312 1.26953125 C4.42541992 1.96369141 4.42541992 1.96369141 5.94140625 2.671875 C7.46797852 3.34283203 7.46797852 3.34283203 9.02539062 4.02734375 C11.53124316 5.13321295 14.01918039 6.26965971 16.50390625 7.421875 C14.6256267 14.01145302 12.46365366 20.39175086 9.9140625 26.75 C9.57301483 27.61020248 9.23196716 28.47040497 8.88058472 29.35667419 C7.77985949 32.13001757 6.6732438 34.90096609 5.56640625 37.671875 C4.80442994 39.58816279 4.04279525 41.50458645 3.28149414 43.42114258 C1.02797303 49.09032337 -1.23347166 54.75632174 -3.49609375 60.421875 C-4.15272998 62.06752135 -4.80930841 63.71319077 -5.46582031 65.35888672 C-8.80062716 73.71667949 -12.14309451 82.07136178 -15.49609375 90.421875 C-18.52723646 86.85745433 -20.19778333 82.81956426 -21.98046875 78.546875 C-22.31331375 77.76140289 -22.64615875 76.97593079 -22.98908997 76.16665649 C-24.08030044 73.58736294 -25.16339694 71.00475257 -26.24609375 68.421875 C-26.99955999 66.63445165 -27.75338896 64.84718116 -28.50756836 63.06005859 C-30.45602833 58.43820958 -32.39690088 53.81321246 -34.33587646 49.18737793 C-35.47508648 46.47194809 -36.61712226 43.75772631 -37.76025391 41.04394531 C-39.53156571 36.83872187 -41.29890775 32.6318577 -43.06237793 28.42333984 C-43.72573382 26.8409097 -44.39003844 25.25887693 -45.05529785 23.67724609 C-45.97796428 21.48162772 -46.89593362 19.28410801 -47.8125 17.0859375 C-48.08665237 16.43573639 -48.36080475 15.78553528 -48.64326477 15.1156311 C-50.49609375 10.65089982 -50.49609375 10.65089982 -50.49609375 8.421875 C-47.32182344 6.87225599 -44.13003403 5.36266243 -40.93359375 3.859375 C-40.03833984 3.42173828 -39.14308594 2.98410156 -38.22070312 2.53320312 C-32.88135332 0.04932977 -29.39230978 -1.26171697 -23.49609375 0.421875 C-21.84609375 1.081875 -20.19609375 1.741875 -18.49609375 2.421875 C-18.16609375 19.911875 -17.83609375 37.401875 -17.49609375 55.421875 C-16.50609375 55.421875 -15.51609375 55.421875 -14.49609375 55.421875 C-14.48182594 54.43921661 -14.48182594 54.43921661 -14.4672699 53.43670654 C-14.36157785 46.62235656 -14.20786058 39.81029589 -14.02612305 32.99755859 C-13.96461656 30.45453308 -13.91538964 27.91117984 -13.87866211 25.36767578 C-13.82375318 21.71231014 -13.72483156 18.06039558 -13.6171875 14.40625 C-13.60956894 13.26758484 -13.60195038 12.12891968 -13.59410095 10.95574951 C-13.31180223 3.37689046 -13.31180223 3.37689046 -11.05751038 0.73760986 C-7.04442288 -1.8736009 -4.22693833 -1.90087168 0 0 Z " fill="#F0F0F0" transform="translate(175.49609375,341.578125)"/>
<path d="M0 0 C1.5835423 0.14883484 3.16682691 0.30041286 4.75 0.453125 C6.07257813 0.57929199 6.07257813 0.57929199 7.421875 0.70800781 C18.55504337 1.96892347 27.62120228 6.52171256 35 15 C31.9535416 16.61619624 28.88852115 17.76887659 25.625 18.875 C13.91058013 23.12206059 8.67947982 30.05653541 3.296875 40.9375 C0.10264188 48.48050834 -0.75325162 55.99137353 -1.69140625 64.08203125 C-1.841577 65.33255783 -1.99174774 66.58308441 -2.14646912 67.87150574 C-2.54289692 71.17626656 -2.9348423 74.48148643 -3.32397461 77.78710938 C-3.87440559 82.4609839 -4.42920007 87.13431976 -4.98924255 91.80705261 C-5.28685395 94.2917206 -5.58078659 96.77683244 -5.8707428 99.2624054 C-6.00435715 100.38084335 -6.1379715 101.49928131 -6.27563477 102.65161133 C-6.39173599 103.63865555 -6.50783722 104.62569977 -6.62745667 105.64265442 C-7 108 -7 108 -8 110 C-18.89 110 -29.78 110 -41 110 C-36.24802593 96.26864635 -31.29064988 82.64268808 -26.125 69.0625 C-25.39434759 67.13592406 -24.66396608 65.20924537 -23.93383789 63.2824707 C-22.41052955 59.26311966 -20.88605743 55.24421284 -19.36083984 51.22558594 C-15.75700123 41.72658732 -12.16987295 32.22127227 -8.58123779 22.71652222 C-6.76180544 17.8980218 -4.94142605 13.07987924 -3.12109375 8.26171875 C-2.51098163 6.64673029 -1.90087369 5.03174025 -1.29077148 3.41674805 C-0.86481689 2.28922119 -0.4388623 1.16169434 0 0 Z " fill="#838282" transform="translate(246,323)"/>
<path d="M0 0 C2.23965324 2.23067668 4.08039599 4.47420524 6 7 C6.556875 6.443125 7.11375 5.88625 7.6875 5.3125 C8.8321875 4.1678125 8.8321875 4.1678125 10 3 C10.99 1.824375 10.99 1.824375 12 0.625 C23.20656613 -9.18074536 35.70665754 -10.70223177 50 -10 C61.77300513 -8.88009464 72.51011553 -5.56849451 81 3 C87.80579555 12.05274713 91.15182931 20.11584545 91.09765625 31.4921875 C91.09443359 32.69101562 91.09121094 33.88984375 91.08789062 35.125 C91.07951172 36.3625 91.07113281 37.6 91.0625 38.875 C91.05798828 40.13570313 91.05347656 41.39640625 91.04882812 42.6953125 C91.0370796 45.79692386 91.02065167 48.89843725 91 52 C90.67 52 90.34 52 90 52 C89.96132813 50.25976562 89.96132813 50.25976562 89.921875 48.484375 C89.55684607 37.17575464 89.14759036 25.7295611 81 17 C81 16.34 81 15.68 81 15 C80.41089844 14.71898437 79.82179688 14.43796875 79.21484375 14.1484375 C77.18803078 13.09749744 75.42952995 11.9306735 73.5625 10.625 C63.02606 3.93079564 49.17516087 1.51561092 36.93359375 3.49609375 C26.75382911 5.7972666 19.19119758 9.46181249 13 18 C12.505 18.804375 12.01 19.60875 11.5 20.4375 C10 22 10 22 7.125 22.5625 C1.96364 21.6334552 -0.16015672 18.16095982 -3.125 14.0625 C-8.89198219 7.06619245 -18.24009721 3.88018162 -27 3 C-40.02143288 1.81230712 -53.21831398 5.2032078 -63.6953125 13.0078125 C-70.92415534 19.0564361 -75.35156169 25.76771541 -76.20532227 35.29003906 C-76.24197998 36.10698242 -76.2786377 36.92392578 -76.31640625 37.765625 C-76.35830078 38.65507812 -76.40019531 39.54453125 -76.44335938 40.4609375 C-76.50233398 41.84152344 -76.50233398 41.84152344 -76.5625 43.25 C-76.60568359 44.18585938 -76.64886719 45.12171875 -76.69335938 46.0859375 C-76.7991805 48.39048641 -76.90126557 50.69513839 -77 53 C-77.33 53 -77.66 53 -78 53 C-80.87043538 38.83451808 -80.52572914 22.72732043 -73.3046875 10.015625 C-66.59009307 -0.04267434 -57.63452378 -5.9129509 -46 -9 C-29.61133726 -11.84273661 -13.5787268 -10.39812413 0 0 Z " fill="#EFE1D7" transform="translate(344,376)"/>
<path d="M0 0 C2.95809352 2.95809352 2.74059366 5.7477331 3.015625 9.8203125 C2.88888751 35.61139212 -19.36074271 60.53882632 -35.61328125 78.6953125 C-39.85819278 82.7943269 -43.91368794 85.99197056 -50 86 C-52.7109375 84.41015625 -52.7109375 84.41015625 -55.375 82.0625 C-56.33019531 81.22332031 -57.28539062 80.38414062 -58.26953125 79.51953125 C-59.17058594 78.68808594 -60.07164062 77.85664063 -61 77 C-61.70511719 76.36449219 -62.41023438 75.72898437 -63.13671875 75.07421875 C-69.18189096 69.34785887 -74.12849555 62.72058284 -79 56 C-79.43135254 55.40767578 -79.86270508 54.81535156 -80.30712891 54.20507812 C-89.41238352 41.55643283 -98.43005341 26.57780428 -98.125 10.5625 C-98.10695312 9.32628906 -98.08890625 8.09007813 -98.0703125 6.81640625 C-98.04710937 5.88699219 -98.02390625 4.95757812 -98 4 C-95.83822906 6.16177094 -95.13433977 8.06785557 -94.09887695 10.89916992 C-87.81258526 28.05767199 -76.47019718 41.03328754 -62.25 52.1875 C-61.54109619 52.75267334 -60.83219238 53.31784668 -60.10180664 53.90014648 C-55.81681152 57.14611177 -52.56786058 59.02641927 -47 59 C-30.22267077 53.21739657 -13.74384219 30.98172916 -6.0625 15.75 C-3.615874 10.59131217 -1.60511154 5.47626289 0 0 Z " fill="#E62828" transform="translate(314,74)"/>
<path d="M0 0 C1.32 0.33 2.64 0.66 4 1 C3.26873901 1.49874634 3.26873901 1.49874634 2.52270508 2.00756836 C0.2028114 5.04310665 0.59131786 8.21210826 0.63671875 11.87890625 C0.63622025 12.64677963 0.63572174 13.41465302 0.63520813 14.20579529 C0.63754667 15.827246 0.64726231 17.44870048 0.66381836 19.07006836 C0.6874459 21.55680643 0.68437377 24.04247483 0.67773438 26.52929688 C0.68331006 28.10417308 0.69041925 29.67904476 0.69921875 31.25390625 C0.69830734 31.99975479 0.69739594 32.74560333 0.69645691 33.51405334 C0.61774067 37.71511979 0.61774067 37.71511979 3 41 C9.06105594 40.68099706 14.32232889 39.05354581 20 37 C25.47652707 48.50952902 30.38163619 60.24964933 35.3125 72 C36.52915064 74.8947475 37.74646611 77.78921295 38.96456909 80.68334961 C39.76827248 82.59381831 40.57079462 84.50478439 41.37210083 86.41625977 C43.42731063 91.30956152 45.51185094 96.18742776 47.64599609 101.046875 C48.06922653 102.0155249 48.49245697 102.9841748 48.92851257 103.98217773 C49.73927358 105.83356625 50.55641853 107.68217551 51.38069153 109.52758789 C51.73999252 110.3499292 52.09929352 111.17227051 52.46948242 112.01953125 C52.79011154 112.74245361 53.11074066 113.46537598 53.44108582 114.21020508 C54 116 54 116 53 118 C52.08203125 117.02083333 51.1640625 116.04166667 50.24609375 115.0625 C49.64659912 114.42304443 49.04710449 113.78358887 48.42944336 113.12475586 C47.08257933 111.68808989 45.73573748 110.25140313 44.38891602 108.81469727 C40.35612066 104.51283089 36.32316588 100.21111575 32.2878418 95.91162109 C31.05328475 94.5944779 29.82037533 93.27578846 28.58911133 91.95556641 C25.41965704 88.55993156 22.22551085 85.19468928 18.98046875 81.87109375 C18.33343994 81.20021729 17.68641113 80.52934082 17.01977539 79.83813477 C15.7906185 78.56463256 14.552006 77.30016382 13.30249023 76.04663086 C9.95961208 72.55906899 7.92878983 70.08440627 8 65 C9.09690534 62.97238709 10.41243036 61.59502238 11.96875 59.90625 C13.188639 57.95032323 13.188639 57.95032323 13.25390625 55.21875 C11.23962012 50.04812142 6.97664135 47.94674237 2.4375 45 C-0.20419885 43.23243525 -2.84346523 41.46133573 -5.48095703 39.6875 C-7.12225791 38.58799703 -8.77393922 37.50378571 -10.43701172 36.4375 C-15.734114 32.8508352 -15.734114 32.8508352 -16.859375 29.25 C-15.54813984 24.29114702 -12.97598178 20.31085491 -10.25 16 C-9.71117188 15.1234375 -9.17234375 14.246875 -8.6171875 13.34375 C-5.83319531 8.8350407 -2.97245326 4.38653297 0 0 Z " fill="#828282" transform="translate(105,314)"/>
<path d="M0 0 C10.80985094 7.83483214 17.49536971 19.26561818 21 32 C21.16647032 35.82005586 20.85140903 39.2770205 20 43 C18.07150225 40.10725338 16.99114841 37.54362302 15.75 34.3125 C10.14612358 20.66541273 -0.53885298 10.89097514 -14.00390625 5.1015625 C-28.01074405 -0.04827878 -40.51573158 -0.57292559 -54.3046875 5.44140625 C-67.82059346 12.29476562 -78.80695638 22.51414147 -84 37 C-84.72280415 39.32395259 -85.37559907 41.6464888 -86 44 C-86.33 44 -86.66 44 -87 44 C-87.56233664 29.59793379 -84.63366845 18.45721535 -75.25 7.25 C-54.29777857 -15.05654753 -24.7155104 -16.54712186 0 0 Z " fill="#F0EFEF" transform="translate(384,159)"/>
<path d="M0 0 C3.63878656 1.27397979 7.15790286 2.75967091 10.67114258 4.34008789 C11.41873337 4.67161362 12.16632416 5.00313934 12.93656921 5.3447113 C15.31247468 6.39962868 17.68517761 7.46154077 20.05786133 8.52368164 C21.67288909 9.24224516 23.28812133 9.96034929 24.90356445 10.67797852 C28.85321836 12.43373388 32.800016 14.19576706 36.74536133 15.96118164 C36.25036133 17.44618164 36.25036133 17.44618164 35.74536133 18.96118164 C26.83536133 18.96118164 17.92536133 18.96118164 8.74536133 18.96118164 C8.74536133 20.61118164 8.74536133 22.26118164 8.74536133 23.96118164 C17.98536133 23.96118164 27.22536133 23.96118164 36.74536133 23.96118164 C37.24036133 25.44618164 37.24036133 25.44618164 37.74536133 26.96118164 C36.73795898 27.32856445 36.73795898 27.32856445 35.71020508 27.70336914 C30.04124143 29.82465876 24.46784294 32.06181815 18.93676758 34.51977539 C17.91784424 34.97175293 16.8989209 35.42373047 15.84912109 35.8894043 C13.79785218 36.80427056 11.75006847 37.726996 9.70605469 38.65795898 C8.74965088 39.08415527 7.79324707 39.51035156 6.80786133 39.94946289 C5.52588867 40.53014526 5.52588867 40.53014526 4.21801758 41.12255859 C1.49080126 42.04751792 -0.39821075 42.33852895 -3.25463867 41.96118164 C-5.04003906 40.94921875 -5.04003906 40.94921875 -6.25463867 38.96118164 C-6.56507439 36.27980483 -6.69890936 33.83506371 -6.68823242 31.15258789 C-6.6960952 30.00789284 -6.6960952 30.00789284 -6.70411682 28.84007263 C-6.71053622 27.22705298 -6.70920103 25.6139865 -6.70068359 24.00097656 C-6.69218009 21.53568904 -6.72092124 19.07272415 -6.75268555 16.60766602 C-6.75429788 15.03930733 -6.75371941 13.47094456 -6.75073242 11.90258789 C-6.7619664 11.16706192 -6.77320038 10.43153595 -6.78477478 9.67372131 C-6.73863933 6.27666123 -6.447682 4.24862121 -4.53613281 1.40234375 C-2.25463867 -0.03881836 -2.25463867 -0.03881836 0 0 Z " fill="#B2E0DF" transform="translate(111.254638671875,314.038818359375)"/>
<path d="M0 0 C4.07419735 1.57092574 8.01020414 3.3881607 11.953125 5.2578125 C14.01027465 6.21804807 16.06881622 7.17525664 18.12744141 8.13232422 C19.53798982 8.79200789 20.94590754 9.4573472 22.35107422 10.12841797 C33.21250086 15.84025459 33.21250086 15.84025459 45 16 C50.07752021 14.12835662 54.93318722 11.89444864 59.8125 9.5625 C61.77752756 8.64134059 63.74471472 7.72503224 65.71330261 6.81150818 C67.4883393 5.98503032 69.25765178 5.14629111 71.02661133 4.30688477 C73.39033597 3.26796384 75.48130242 2.49804754 78 2 C77.67 2.66 77.34 3.32 77 4 C76.34 4 75.68 4 75 4 C75.01804687 4.78503906 75.03609375 5.57007813 75.0546875 6.37890625 C74.85106129 9.98663142 74.41201401 12.66060782 73 16 C69.32418132 18.89530051 65.35106408 20.57663699 61.01708984 22.22216797 C58.98618779 23.00532628 57.00655354 23.86583793 55.01953125 24.75390625 C45.24503683 29.00221465 39.24505156 30.47403587 29.19921875 26.54296875 C27.32145679 25.7339744 25.4574952 24.90102971 23.59838867 24.05004883 C21.68944025 23.1883758 19.76125696 22.38879333 17.82617188 21.58789062 C8.84002057 17.64395606 8.84002057 17.64395606 6.57348633 13.20825195 C5.8125 10.25 5.8125 10.25 5.4375 7.46484375 C4.76698411 3.68720512 2.94344462 2.30702416 0 0 Z " fill="#EAA89B" transform="translate(119,255)"/>
<path d="M0 0 C3.93923476 1.17166983 7.63327915 2.6933538 11.37109375 4.3828125 C12.35787109 4.82753906 13.34464844 5.27226562 14.36132812 5.73046875 C16.41182235 6.66002613 18.45872909 7.59753813 20.50195312 8.54296875 C29.17904993 12.43447238 29.17904993 12.43447238 38.40454102 11.16943359 C41.16316714 10.06274455 43.86106866 8.86450263 46.5625 7.625 C48.39619968 6.8025979 50.23081236 5.982228 52.06640625 5.1640625 C52.9186377 4.78282227 53.77086914 4.40158203 54.64892578 4.00878906 C57.38418023 2.83515756 60.15177859 1.86252296 63 1 C63.28125615 9.43768453 63.28125615 9.43768453 61 13 C58.78857422 14.35620117 58.78857422 14.35620117 56.0546875 15.54296875 C54.56195313 16.19362305 54.56195313 16.19362305 53.0390625 16.85742188 C51.99492187 17.29634766 50.95078125 17.73527344 49.875 18.1875 C48.8540625 18.63802734 47.833125 19.08855469 46.78125 19.55273438 C34.03836835 25.0151393 34.03836835 25.0151393 27.15625 23.28515625 C24.09469102 21.87593866 21.04428986 20.44621026 18 19 C16.58247911 18.41888995 15.16310802 17.84227836 13.7421875 17.26953125 C2.81163604 12.64497358 2.81163604 12.64497358 0.5390625 8.0390625 C0.04776146 5.26926389 -0.16491282 2.80351802 0 0 Z " fill="#EAA89B" transform="translate(318,277)"/>
<path d="M0 0 C9.39292861 1.5654881 15.79791937 5.86215767 21.5 13.5 C26.93643528 21.62685928 29.14456865 28.64058309 29.09765625 38.4921875 C29.09443359 39.69101562 29.09121094 40.88984375 29.08789062 42.125 C29.07951172 43.3625 29.07113281 44.6 29.0625 45.875 C29.05798828 47.13570313 29.05347656 48.39640625 29.04882812 49.6953125 C29.0370796 52.79692386 29.02065167 55.89843725 29 59 C28.67 59 28.34 59 28 59 C27.97421875 57.83984375 27.9484375 56.6796875 27.921875 55.484375 C27.55684607 44.17575464 27.14759036 32.7295611 19 24 C19 23.34 19 22.68 19 22 C18.41992188 21.7215625 17.83984375 21.443125 17.2421875 21.15625 C14.42273897 19.70231835 11.83576852 17.97192728 9.1953125 16.21875 C6.4754149 14.6207033 6.4754149 14.6207033 1 13 C0.67 8.71 0.34 4.42 0 0 Z " fill="#EED8C5" transform="translate(406,369)"/>
<path d="M0 0 C1.65 0 3.3 0 5 0 C5 17.49 5 34.98 5 53 C3.02 53.495 3.02 53.495 1 54 C0 53 0 53 -0.12025452 50.86766052 C-0.11803391 49.92834183 -0.11581329 48.98902313 -0.11352539 48.02124023 C-0.11344986 46.96021591 -0.11337433 45.89919159 -0.11329651 44.80601501 C-0.10813522 43.651866 -0.10297394 42.49771698 -0.09765625 41.30859375 C-0.0962413 40.13361832 -0.09482635 38.95864288 -0.09336853 37.74806213 C-0.08774992 33.97784936 -0.07519426 30.20769496 -0.0625 26.4375 C-0.0574874 23.88867273 -0.05292408 21.33984453 -0.04882812 18.79101562 C-0.03777444 12.52732367 -0.02101821 6.26366601 0 0 Z " fill="#828383" transform="translate(157,344)"/>
<path d="M0 0 C8.58 0 17.16 0 26 0 C26.33 1.65 26.66 3.3 27 5 C18.09 5 9.18 5 0 5 C0 3.35 0 1.7 0 0 Z " fill="#B2E1E0" transform="translate(172,333)"/>
</svg>
