<?xml version="1.0" encoding="UTF-8" standalone="no"?>
<svg xmlns="http://www.w3.org/2000/svg" version="1.1" viewBox="0.00 0.00 1600.00 796.00">
  <g stroke-width="2.00" fill="none" stroke-linecap="butt">
    <path stroke="#224a65" stroke-opacity="0.518" vector-effect="non-scaling-stroke" d="   M 384.03 364.37   L 360.12 364.39"></path>
    <path stroke="#224a65" stroke-opacity="0.518" vector-effect="non-scaling-stroke" d="   M 338.95 220.53   L 339.00 196.30   A 0.45 0.45 0.0 0 0 338.40 195.88   L 299.73 209.94   A 0.71 0.71 0.0 0 0 299.26 210.61   Q 299.27 270.86 299.24 331.22   Q 299.24 339.11 299.57 343.27   C 300.64 356.56 303.39 370.90 310.85 382.24   Q 323.47 401.43 348.96 405.48"></path>
    <path stroke="#224a65" stroke-opacity="0.518" vector-effect="non-scaling-stroke" d="   M 575.95 403.02   Q 589.91 399.39 600.12 389.64   Q 600.49 389.29 600.82 389.67   Q 610.18 400.68 623.96 403.77   Q 627.38 404.54 628.97 405.22"></path>
    <path stroke="#224a65" stroke-opacity="0.518" vector-effect="non-scaling-stroke" d="   M 701.57 402.21   Q 714.42 406.97 729.52 405.55   Q 748.61 403.76 760.27 390.52   Q 760.66 390.08 761.05 390.51   Q 762.23 391.80 763.68 393.33   C 772.99 403.20 786.63 405.68 799.79 405.98   Q 812.15 406.26 823.54 405.49   Q 836.62 404.60 849.51 398.91   Q 870.48 389.65 879.02 368.23"></path>
    <path stroke="#224a65" stroke-opacity="0.518" vector-effect="non-scaling-stroke" d="   M 880.73 363.45   Q 882.91 356.30 883.77 350.25   Q 885.83 335.69 884.33 319.49   Q 882.40 298.65 875.40 278.62   A 0.46 0.46 0.0 0 0 874.85 278.33   L 838.50 287.44   A 0.59 0.59 0.0 0 0 838.07 288.16   Q 841.52 300.93 843.57 314.94   Q 845.18 325.96 844.94 336.50   Q 844.82 341.57 843.31 347.82   Q 840.24 360.45 827.79 363.00   Q 821.55 364.27 817.88 364.42   Q 814.22 364.57 803.59 364.50   Q 794.34 364.44 790.86 362.97   Q 783.54 359.86 780.53 351.44   Q 778.18 344.86 777.79 340.48   Q 776.87 330.16 774.30 300.42   A 0.47 0.47 0.0 0 0 773.78 299.99   L 736.96 304.26   A 1.19 1.19 0.0 0 0 735.92 305.59   Q 738.41 325.74 737.94 343.97   C 737.72 352.76 735.67 362.77 725.50 364.16   Q 720.16 364.89 715.12 363.46   Q 708.32 361.54 706.01 354.59   Q 704.69 350.59 704.52 348.29   Q 702.80 324.29 701.44 304.21   Q 701.37 303.12 700.29 303.25   L 663.53 307.51   A 0.64 0.64 0.0 0 0 662.96 308.22   Q 664.67 323.31 665.03 337.51   Q 665.17 343.39 663.74 349.25   C 661.13 359.95 654.27 364.15 643.64 364.53   Q 637.07 364.76 632.22 363.05   Q 625.00 360.52 622.94 352.85   Q 622.08 349.67 621.98 348.25   Q 620.41 326.41 618.92 304.20   A 1.03 1.03 0.0 0 0 617.77 303.24   L 581.55 307.44   Q 580.26 307.59 580.40 308.87   Q 581.87 322.30 582.41 333.08   Q 582.82 341.30 581.69 346.98   Q 579.87 356.15 571.34 360.54   Q 563.65 364.49 553.74 364.49   Q 545.54 364.50 537.27 364.41"></path>
    <path stroke="#214761" stroke-opacity="0.541" vector-effect="non-scaling-stroke" d="   M 338.95 220.53   Q 338.90 271.28 338.96 322.00   C 338.98 334.77 338.63 342.54 342.44 351.74   Q 347.12 363.01 360.12 364.39"></path>
    <path stroke="#214761" stroke-opacity="0.541" vector-effect="non-scaling-stroke" d="   M 880.73 363.45   L 879.02 368.23"></path>
    <path stroke="#214761" stroke-opacity="0.541" vector-effect="non-scaling-stroke" d="   M 701.57 402.21   Q 691.43 397.73 684.54 389.12   Q 684.23 388.73 683.88 389.08   Q 669.73 403.35 650.50 405.47   Q 641.32 406.48 628.97 405.22"></path>
    <path stroke="#214761" stroke-opacity="0.541" vector-effect="non-scaling-stroke" d="   M 575.95 403.02   Q 563.15 406.04 550.75 406.09   Q 485.86 406.32 377.75 406.18   Q 363.00 406.16 348.96 405.48"></path>
    <path stroke="#224a65" stroke-opacity="0.518" vector-effect="non-scaling-stroke" d="   M 866.47 499.32   Q 866.16 498.90 865.85 498.71   Q 865.42 498.44 865.06 498.80   L 857.63 506.23   A 0.47 0.47 0.0 0 0 857.63 506.90   L 865.18 514.45   Q 865.51 514.78 865.84 514.45   L 873.31 506.98   Q 873.70 506.59 873.31 506.20   L 867.93 500.80"></path>
    <path stroke="#224a65" stroke-opacity="0.518" vector-effect="non-scaling-stroke" d="   M 49.92 534.72   Q 48.25 542.67 49.62 549.09   C 53.39 566.84 72.61 571.50 88.47 572.11   Q 101.95 572.62 114.92 571.64   Q 128.12 570.65 137.26 566.98   Q 147.85 562.73 149.45 550.71   Q 150.92 539.70 147.29 529.27   Q 147.21 529.02 146.95 529.08   L 140.38 530.73   A 0.34 0.33 76.2 0 0 140.14 531.14   Q 142.06 539.26 142.02 545.31   C 141.98 552.49 139.55 557.32 132.81 559.82   Q 127.01 561.97 120.49 562.75   Q 106.61 564.41 91.99 563.97   Q 79.34 563.60 71.63 560.64   Q 51.92 553.07 58.61 530.69"></path>
    <path stroke="#224a65" stroke-opacity="0.518" vector-effect="non-scaling-stroke" d="   M 161.31 498.44   L 159.02 499.27   Q 158.53 499.44 158.53 499.96   Q 158.48 545.62 158.61 549.50   Q 158.78 554.20 160.05 558.72   C 162.61 567.82 169.72 572.01 179.03 572.25   Q 186.77 572.46 193.91 570.16   C 200.94 567.89 205.18 560.98 206.30 553.98   Q 208.20 542.10 204.44 529.32   Q 204.36 529.04 204.07 529.11   L 197.49 530.76   Q 197.18 530.84 197.26 531.14   Q 198.61 536.63 199.19 543.76   C 199.63 549.23 198.91 556.24 194.76 560.26   Q 192.53 562.43 188.31 563.27   C 181.04 564.73 172.40 564.84 168.58 557.39   Q 166.14 552.63 166.07 547.72   Q 165.89 535.81 166.03 509.36"></path>
    <path stroke="#224a65" stroke-opacity="0.518" vector-effect="non-scaling-stroke" d="   M 279.29 541.12   Q 280.13 548.50 279.28 553.50   C 277.36 564.78 264.22 563.93 255.74 564.03   Q 250.64 564.08 248.43 563.08   Q 242.35 560.32 240.06 553.44   Q 238.38 548.41 236.68 542.73   Q 236.48 542.05 235.82 542.29   L 229.76 544.50   Q 229.09 544.74 229.37 545.39   Q 232.41 552.56 233.25 558.99   Q 236.01 580.06 218.70 591.19   Q 215.22 593.42 208.46 595.84   A 0.44 0.43 66.0 0 0 208.23 596.45   L 211.20 602.18   Q 211.48 602.72 212.05 602.54   C 226.51 598.05 237.67 588.24 240.33 572.88   Q 240.68 570.85 241.11 567.73   Q 241.19 567.17 241.66 567.44   Q 241.70 567.47 243.03 568.98   Q 245.71 572.05 251.25 572.16   Q 261.42 572.36 264.74 572.18   Q 276.43 571.54 283.33 562.94   Q 283.89 562.24 284.26 563.05   Q 286.86 568.85 292.56 571.11   Q 295.27 572.19 303.30 572.22   Q 319.62 572.30 339.69 572.23   Q 348.40 572.19 352.05 570.91   Q 358.46 568.66 362.37 563.02   Q 362.70 562.55 363.03 563.03   C 364.06 564.56 365.00 566.40 366.54 567.83   Q 370.85 571.82 377.80 572.28   Q 389.84 573.08 397.10 563.48   Q 397.67 562.73 398.09 563.57   Q 401.69 570.85 409.63 572.04   Q 422.43 573.95 428.70 562.71   Q 429.27 561.69 429.74 562.77   Q 432.64 569.48 438.78 571.29   Q 444.56 573.00 450.37 571.91   C 456.21 570.82 459.96 567.30 464.15 562.84   Q 464.53 562.43 464.92 562.83   C 470.68 568.60 476.22 572.70 484.55 573.60   C 494.21 574.65 502.57 570.50 504.22 560.49   Q 505.77 551.10 502.78 543.78   Q 499.22 535.05 492.19 532.07   Q 482.34 527.90 473.41 533.83   Q 471.24 535.27 468.63 538.66   Q 465.66 542.52 464.83 544.35   Q 462.33 549.82 460.01 554.03   Q 457.41 558.76 453.31 561.55   Q 447.68 565.38 440.96 563.44   Q 435.36 561.83 433.15 556.11   C 430.90 550.27 431.07 546.23 430.41 538.06   Q 430.39 537.73 430.05 537.76   L 423.55 538.52   Q 423.25 538.55 423.28 538.86   Q 424.03 544.72 423.74 551.00   C 423.41 558.27 420.08 564.73 411.71 563.97   Q 405.31 563.39 402.61 558.50   Q 401.02 555.59 400.65 549.10   Q 400.38 544.53 399.96 539.46   A 0.36 0.36 0.0 0 0 399.55 539.13   L 393.27 539.86   Q 393.06 539.88 393.07 540.09   Q 393.35 545.70 393.51 547.57   Q 393.85 551.71 392.36 555.65   Q 389.35 563.65 380.50 563.99   Q 371.16 564.35 367.92 557.31   Q 366.56 554.34 366.33 548.54   Q 366.15 544.00 365.73 539.54   A 0.44 0.44 0.0 0 0 365.24 539.14   L 359.18 539.84   Q 358.75 539.89 358.77 540.33   Q 358.94 543.07 359.18 546.35   Q 360.07 558.46 351.19 562.34   Q 347.43 563.98 336.57 563.99   Q 311.16 564.02 303.67 564.02   Q 296.97 564.03 294.09 562.60   Q 288.07 559.63 287.23 551.53   Q 286.77 547.10 286.53 539.52   Q 286.46 537.23 285.28 537.82"></path>
    <path stroke="#224a65" stroke-opacity="0.518" vector-effect="non-scaling-stroke" d="   M 701.03 543.19   Q 701.64 548.21 701.02 552.51   C 699.85 560.65 692.29 564.06 684.50 564.03   Q 656.23 563.92 643.81 564.09   Q 637.53 564.17 634.57 562.54   Q 628.70 559.31 627.73 552.50   Q 625.31 535.58 622.66 516.23   A 0.73 0.60 -10.7 0 0 621.80 515.76   L 616.41 516.91   Q 615.75 517.05 615.80 517.78   Q 615.82 518.07 615.91 519.46   Q 615.94 519.97 615.45 520.09   Q 603.54 523.24 593.83 529.58   C 586.20 534.56 581.12 541.92 582.73 551.27   Q 583.86 557.84 589.80 561.31   Q 596.09 564.99 604.56 564.38   Q 614.11 563.69 620.76 556.57   Q 621.14 556.17 621.36 556.68   C 621.94 558.05 622.14 560.01 622.51 561.02   Q 626.48 571.85 637.35 572.16   Q 641.98 572.29 681.46 572.19   Q 690.53 572.17 694.14 570.91   Q 700.76 568.59 704.70 562.82   Q 704.94 562.47 705.13 562.85   Q 708.91 570.53 717.09 571.90   Q 731.03 574.24 739.36 563.44   Q 739.73 562.95 740.04 563.48   Q 743.85 570.02 749.49 571.50   Q 763.62 575.22 771.05 562.50   Q 771.52 561.70 771.87 562.56   Q 775.34 571.20 784.67 572.05   Q 792.88 572.80 802.70 571.43   Q 813.56 569.93 821.78 564.01   Q 822.21 563.71 822.63 564.01   Q 833.34 571.66 847.27 572.10   Q 858.15 572.44 862.68 572.12   Q 880.80 570.85 883.57 553.40   Q 885.36 542.17 881.71 529.59   Q 881.55 529.05 881.00 529.19   L 875.00 530.69   Q 874.44 530.83 874.56 531.40   Q 876.49 540.90 876.48 546.26   C 876.48 553.41 874.77 560.36 867.46 562.89   Q 864.46 563.93 857.59 564.02   C 848.81 564.14 840.27 564.22 832.08 560.97   Q 831.24 560.63 831.98 560.12   Q 836.54 556.95 839.55 552.61   C 846.65 542.36 843.88 529.76 834.07 522.26   Q 826.02 516.10 817.90 518.76   Q 814.73 519.79 811.47 522.42   C 806.55 526.38 802.27 531.39 801.79 537.97   Q 801.02 548.50 808.19 555.80   Q 809.31 556.94 813.02 560.45   Q 813.34 560.75 812.94 560.93   Q 807.75 563.22 801.18 563.64   Q 793.72 564.11 788.50 564.05   Q 783.99 563.99 781.80 563.05   C 776.69 560.83 774.16 555.01 773.58 549.73   Q 773.05 544.85 772.61 538.64   Q 772.54 537.70 771.61 537.81   L 766.22 538.44   Q 765.33 538.54 765.44 539.43   Q 766.16 545.02 765.92 550.97   C 765.59 558.74 761.67 565.21 752.85 563.83   Q 743.78 562.41 743.03 551.82   Q 742.27 541.13 742.22 539.53   Q 742.21 539.08 741.76 539.13   L 735.54 539.85   Q 735.17 539.89 735.19 540.27   Q 735.84 551.12 735.34 553.04   Q 732.06 565.46 719.51 563.92   Q 710.07 562.76 708.89 552.73   Q 708.54 549.70 707.97 539.76   Q 707.94 539.21 707.39 539.27   L 700.99 539.93"></path>
    <path stroke="#224a65" stroke-opacity="0.518" vector-effect="non-scaling-stroke" d="   M 803.29 496.22   L 810.73 503.65   A 0.62 0.61 44.7 0 0 811.60 503.65   L 818.87 496.38   A 0.68 0.68 0.0 0 0 818.87 495.42   L 811.63 488.18   Q 811.29 487.84 810.88 488.09   Q 809.75 488.75 808.92 490.04"></path>
    <path stroke="#f6f6f6" stroke-opacity="0.518" vector-effect="non-scaling-stroke" d="   M 1118.80 190.19   L 1118.04 190.49"></path>
    <path stroke="#f6f6f6" stroke-opacity="0.518" vector-effect="non-scaling-stroke" d="   M 1018.37 253.88   Q 1010.97 254.15 1003.69 254.50   Q 997.61 254.80 994.94 255.73   C 986.74 258.60 981.87 267.38 983.54 275.75   Q 984.09 278.50 986.68 283.50   Q 988.61 287.23 990.54 291.00"></path>
    <path stroke="#f6f6f6" stroke-opacity="0.518" vector-effect="non-scaling-stroke" d="   M 1069.12 610.96   Q 1068.98 610.94 1069.27 611.23"></path>
    <path stroke="#f6f6f6" stroke-opacity="0.518" vector-effect="non-scaling-stroke" d="   M 1332.41 171.79   L 1328.36 163.32   Q 1328.14 162.87 1327.64 162.91   L 1301.31 165.00"></path>
    <path stroke="#ededed" stroke-opacity="0.541" vector-effect="non-scaling-stroke" d="   M 1301.31 165.00   Q 1240.26 169.95 1179.25 175.00   Q 1150.08 177.41 1118.80 190.19"></path>
    <path stroke="#ededed" stroke-opacity="0.541" vector-effect="non-scaling-stroke" d="   M 1332.41 171.79   Q 1359.61 229.22 1386.81 286.68   Q 1392.74 299.22 1395.05 304.89   C 1415.51 355.32 1416.36 411.46 1397.48 462.72   Q 1397.27 463.29 1397.55 463.83   Q 1408.75 485.21 1412.74 493.20   C 1417.14 502.01 1413.41 512.36 1404.69 516.92   Q 1401.40 518.64 1392.44 519.01   Q 1385.33 519.31 1365.95 520.16   A 1.84 1.84 0.0 0 0 1364.60 520.85   C 1329.49 565.25 1278.70 594.05 1222.44 601.43   Q 1215.41 602.35 1202.52 603.15   Q 1135.89 607.28 1069.27 611.23"></path>
    <path stroke="#ededed" stroke-opacity="0.541" vector-effect="non-scaling-stroke" d="   M 1069.12 610.96   Q 1039.31 551.40 1009.63 491.79   Q 1003.99 480.46 1001.20 473.74   C 979.42 421.29 978.97 362.74 999.91 310.18   A 1.53 1.53 0.0 0 0 999.85 308.91   L 990.54 291.00"></path>
    <path stroke="#ededed" stroke-opacity="0.541" vector-effect="non-scaling-stroke" d="   M 1018.37 253.88   L 1032.88 253.14   Q 1033.38 253.11 1033.71 252.73   Q 1068.31 211.38 1118.04 190.49"></path>
    <path stroke="#224a65" stroke-opacity="0.518" vector-effect="non-scaling-stroke" d="   M 655.49 226.28   L 653.16 224.08   Q 652.76 223.70 652.37 224.09   L 627.24 249.21   A 0.50 0.50 0.0 0 0 627.24 249.91   L 652.56 275.23   Q 652.82 275.49 653.08 275.23   L 677.63 250.68   A 0.62 0.61 -44.7 0 1 678.50 250.68   L 703.06 275.24   Q 703.41 275.59 703.76 275.24   L 729.02 249.98   A 0.44 0.43 45.5 0 0 729.02 249.37   L 709.72 230.03"></path>
    <path stroke="#224a65" stroke-opacity="0.518" vector-effect="non-scaling-stroke" d="   M 694.89 216.47   L 703.34 208.05   A 0.47 0.47 0.0 0 0 703.34 207.38   L 678.08 182.12   A 0.51 0.51 0.0 0 0 677.36 182.12   L 652.12 207.35   A 0.51 0.50 -45.4 0 0 652.12 208.06   L 663.72 219.64"></path>
    <path stroke="#214761" stroke-opacity="0.541" vector-effect="non-scaling-stroke" d="   M 694.89 216.47   L 678.10 233.27   A 0.55 0.55 0.0 0 1 677.32 233.27   L 663.72 219.64"></path>
    <path stroke="#214761" stroke-opacity="0.541" vector-effect="non-scaling-stroke" d="   M 709.72 230.03   L 703.78 223.99   A 0.43 0.43 0.0 0 0 703.16 223.99   L 678.58 248.57   Q 678.14 249.00 677.71 248.57   L 655.49 226.28"></path>
    <path stroke="#224a65" stroke-opacity="0.518" vector-effect="non-scaling-stroke" d="   M 844.1698 237.3398   A 0.82 0.82 0.0 0 0 844.1698 236.1802   L 817.7098 209.7202   A 0.82 0.82 0.0 0 0 816.5502 209.7202   L 790.0902 236.1802   A 0.82 0.82 0.0 0 0 790.0902 237.3398   L 816.5502 263.7998   A 0.82 0.82 0.0 0 0 817.7098 263.7998   L 844.1698 237.3398"></path>
    <path stroke="#224a65" stroke-opacity="0.518" vector-effect="non-scaling-stroke" d="   M 158.85 286.53   A 0.69 0.69 0.0 0 0 159.84 286.54   L 186.43 259.97   A 0.69 0.69 0.0 0 0 186.45 259.00   L 159.64 230.76   A 0.69 0.69 0.0 0 0 158.65 230.75   L 132.06 257.32   A 0.69 0.69 0.0 0 0 132.04 258.29   L 158.85 286.53"></path>
    <path stroke="#224a65" stroke-opacity="0.518" vector-effect="non-scaling-stroke" d="   M 212.50 258.01   A 0.37 0.37 0.0 0 0 212.29 258.54   Q 217.88 268.68 221.87 278.43   Q 232.58 304.66 229.26 332.54   C 228.59 338.16 227.07 344.60 225.07 349.57   Q 216.47 370.89 193.98 377.97   Q 181.77 381.82 167.05 382.23   C 139.84 382.98 105.64 378.97 95.69 348.37   Q 92.04 337.14 92.29 324.24   Q 92.70 303.28 100.15 282.19   Q 103.12 273.78 106.45 266.16   A 0.60 0.59 22.1 0 0 106.11 265.36   L 68.04 250.91   Q 67.50 250.71 67.26 251.23   Q 57.48 271.90 52.85 292.31   Q 47.37 316.49 49.88 341.46   Q 51.37 356.28 56.56 368.87   Q 67.35 395.08 93.00 408.61   C 116.55 421.03 144.23 423.33 170.22 422.37   C 186.68 421.77 204.23 418.53 219.19 411.74   Q 259.24 393.54 270.34 349.87   C 271.96 343.50 273.01 335.71 273.22 329.02   C 274.15 299.98 266.84 271.08 254.61 244.52   A 0.16 0.16 0.0 0 0 254.42 244.44   L 212.50 258.01"></path>
    <path stroke="#91a6b4" vector-effect="non-scaling-stroke" d="   M 1003.37 273.54   Q 1003.03 273.25 1002.71 273.34   A 0.28 0.27 -22.2 0 0 1002.54 273.73   L 1020.47 308.31   Q 1020.70 308.77 1020.50 309.23   C 998.13 359.30 997.47 416.41 1018.50 466.85   Q 1021.02 472.90 1027.00 484.91   Q 1053.46 538.11 1080.29 591.89"></path>
    <path stroke="#8b9fac" vector-effect="non-scaling-stroke" d="   M 1080.29 591.89   Q 1139.75 588.37 1199.16 584.74   Q 1212.69 583.92 1219.09 583.10   C 1273.84 576.17 1322.75 547.05 1355.20 502.44   Q 1355.49 502.04 1355.99 502.02   L 1394.32 500.25"></path>
    <path stroke="#eda9ab" vector-effect="non-scaling-stroke" d="   M 1394.32 500.25   Q 1394.69 500.35 1394.94 500.30   Q 1395.50 500.17 1395.23 499.66   L 1377.09 464.66   A 1.07 1.07 0.0 0 1 1377.05 463.74   Q 1397.03 415.82 1391.13 363.84   Q 1387.47 331.55 1373.25 301.48   Q 1345.24 242.29 1316.95 182.44"></path>
    <path stroke="#f8afb0" vector-effect="non-scaling-stroke" d="   M 1316.95 182.44   Q 1253.71 187.48 1190.47 192.71   Q 1177.59 193.78 1170.62 194.88   C 1119.62 202.91 1074.47 229.91 1042.98 271.03   Q 1042.67 271.42 1042.18 271.44   Q 1010.29 272.80 1004.01 273.12   Q 1003.53 273.15 1003.37 273.54"></path>
    <path stroke="#e6595c" vector-effect="non-scaling-stroke" d="   M 1316.95 182.44   L 1267.77 267.76"></path>
    <path stroke="#f8afb0" vector-effect="non-scaling-stroke" d="   M 1267.77 267.76   Q 1235.45 249.08 1198.75 248.58   Q 1160.03 248.05 1125.82 267.80   Q 1095.89 285.08 1076.95 316.47"></path>
    <path stroke="#8a5665" vector-effect="non-scaling-stroke" d="   M 1076.95 316.47   L 1003.37 273.54"></path>
    <path stroke="#8b9fac" vector-effect="non-scaling-stroke" d="   M 1320.64 457.19   Q 1296.56 500.52 1250.04 517.99   Q 1232.48 524.59 1216.00 527.55   Q 1188.23 532.53 1157.50 533.82   Q 1135.74 534.74 1113.12 535.49"></path>
    <path stroke="#91a6b4" vector-effect="non-scaling-stroke" d="   M 1113.12 535.49   Q 1103.19 517.20 1093.41 498.31   C 1082.17 476.58 1071.44 453.54 1064.30 429.32   Q 1058.09 408.22 1057.60 387.81   Q 1056.85 356.74 1070.68 328.19   Q 1073.76 321.84 1076.95 316.47"></path>
    <path stroke="#794958" vector-effect="non-scaling-stroke" d="   M 1394.32 500.25   Q 1394.14 499.64 1393.01 498.99   Q 1356.91 478.12 1320.64 457.19"></path>
    <path stroke="#eda9ab" vector-effect="non-scaling-stroke" d="   M 1320.64 457.19   Q 1340.87 420.86 1338.14 381.06   C 1334.88 333.52 1308.96 291.73 1267.77 267.76"></path>
    <path stroke="#1d4661" vector-effect="non-scaling-stroke" d="   M 1113.12 535.49   L 1080.29 591.89"></path>
    <path stroke="#9cddcd" vector-effect="non-scaling-stroke" d="   M 1118.60 340.39   C 1110.01 355.27 1107.74 373.28 1115.09 389.10   Q 1115.31 389.57 1115.05 390.02   Q 1108.80 400.91 1102.32 412.06   Q 1102.09 412.45 1102.15 412.65   Q 1102.20 412.85 1102.59 413.07   Q 1113.78 419.49 1124.63 425.80   Q 1125.08 426.06 1125.13 426.58   C 1126.67 443.95 1137.64 458.42 1152.52 467.01   C 1167.39 475.60 1185.40 477.87 1201.22 470.52   Q 1201.69 470.30 1202.14 470.56   Q 1213.03 476.81 1224.18 483.29   Q 1224.57 483.52 1224.77 483.47   Q 1224.98 483.42 1225.20 483.02   Q 1231.62 471.84 1237.93 460.98   Q 1238.19 460.53 1238.70 460.49   C 1256.08 458.95 1270.54 447.98 1279.14 433.10   C 1287.73 418.22 1290.00 400.21 1282.65 384.39   Q 1282.43 383.92 1282.69 383.47   Q 1288.94 372.58 1295.42 361.43   Q 1295.65 361.04 1295.59 360.84   Q 1295.54 360.64 1295.15 360.42   Q 1283.96 354.00 1273.11 347.69   Q 1272.66 347.43 1272.61 346.91   C 1271.07 329.54 1260.10 315.07 1245.22 306.48   C 1230.34 297.89 1212.33 295.62 1196.51 302.97   Q 1196.04 303.19 1195.59 302.93   Q 1184.70 296.68 1173.55 290.20   Q 1173.16 289.97 1172.96 290.02   Q 1172.76 290.07 1172.54 290.47   Q 1166.12 301.65 1159.81 312.51   Q 1159.55 312.96 1159.04 313.00   C 1141.66 314.54 1127.20 325.51 1118.60 340.39"></path>
    <path stroke="#224a65" stroke-opacity="0.518" vector-effect="non-scaling-stroke" d="   M 835.6030 496.1782   A 0.54 0.54 0.0 0 0 835.6016 495.4146   L 828.1782 488.0170   A 0.54 0.54 0.0 0 0 827.4146 488.0184   L 820.0170 495.4418   A 0.54 0.54 0.0 0 0 820.0184 496.2054   L 827.4418 503.6030   A 0.54 0.54 0.0 0 0 828.2054 503.6016   L 835.6030 496.1782"></path>
    <path stroke="#224a65" stroke-opacity="0.518" vector-effect="non-scaling-stroke" d="   M 735.0278 490.2944   A 0.44 0.44 0.0 0 0 734.4055 490.2922   L 727.0544 497.5922   A 0.44 0.44 0.0 0 0 727.0522 498.2145   L 734.3522 505.5656   A 0.44 0.44 0.0 0 0 734.9745 505.5678   L 742.3256 498.2678   A 0.44 0.44 0.0 0 0 742.3278 497.6455   L 735.0278 490.2944"></path>
    <path stroke="#224a65" stroke-opacity="0.518" vector-effect="non-scaling-stroke" d="   M 726.4319 505.7086   A 0.46 0.46 0.0 0 0 725.7813 505.7063   L 718.4586 512.9781   A 0.46 0.46 0.0 0 0 718.4563 513.6287   L 725.7281 520.9514   A 0.46 0.46 0.0 0 0 726.3787 520.9537   L 733.7014 513.6819   A 0.46 0.46 0.0 0 0 733.7037 513.0313   L 726.4319 505.7086"></path>
    <path stroke="#224a65" stroke-opacity="0.518" vector-effect="non-scaling-stroke" d="   M 743.6663 505.7793   A 0.57 0.57 0.0 0 0 742.8602 505.7779   L 735.6493 512.9637   A 0.57 0.57 0.0 0 0 735.6479 513.7698   L 742.8337 520.9807   A 0.57 0.57 0.0 0 0 743.6398 520.9821   L 750.8507 513.7963   A 0.57 0.57 0.0 0 0 750.8521 512.9902   L 743.6663 505.7793"></path>
    <path stroke="#224a65" stroke-opacity="0.518" vector-effect="non-scaling-stroke" d="   M 557.51 571.87   Q 554.49 584.57 543.31 591.27   Q 535.67 595.85 525.38 597.94   Q 524.86 598.05 525.04 598.54   L 527.20 604.50   A 0.55 0.55 0.0 0 0 527.82 604.85   C 546.53 601.19 561.23 591.10 563.95 571.03   Q 566.05 555.49 560.10 541.04   Q 556.04 531.17 547.18 529.49   Q 541.83 528.48 537.04 530.31   Q 532.08 532.19 528.86 537.10   Q 522.85 546.28 523.68 557.12   Q 524.06 562.18 526.20 565.26   Q 529.12 569.45 533.31 570.75   Q 540.20 572.87 546.03 572.45   Q 550.53 572.13 556.96 571.27   A 0.50 0.49 2.8 0 1 557.51 571.87"></path>
    <path stroke="#224a65" stroke-opacity="0.518" vector-effect="non-scaling-stroke" d="   M 101.8182 586.6975   A 0.45 0.45 0.0 0 0 101.1818 586.6975   L 93.5875 594.2918   A 0.45 0.45 0.0 0 0 93.5875 594.9282   L 101.1818 602.5225   A 0.45 0.45 0.0 0 0 101.8182 602.5225   L 109.4125 594.9282   A 0.45 0.45 0.0 0 0 109.4125 594.2918   L 101.8182 586.6975"></path>
    <path stroke="#224a65" stroke-opacity="0.518" vector-effect="non-scaling-stroke" d="   M 270.8942 594.9706   A 0.51 0.51 0.0 0 0 270.8942 594.2494   L 263.3706 586.7258   A 0.51 0.51 0.0 0 0 262.6494 586.7258   L 255.1258 594.2494   A 0.51 0.51 0.0 0 0 255.1258 594.9706   L 262.6494 602.4942   A 0.51 0.51 0.0 0 0 263.3706 602.4942   L 270.8942 594.9706"></path>
    <path stroke="#224a65" stroke-opacity="0.518" vector-effect="non-scaling-stroke" d="   M 279.9872 586.7858   A 0.59 0.59 0.0 0 0 279.1528 586.7858   L 271.6858 594.2528   A 0.59 0.59 0.0 0 0 271.6858 595.0872   L 279.1528 602.5542   A 0.59 0.59 0.0 0 0 279.9872 602.5542   L 287.4542 595.0872   A 0.59 0.59 0.0 0 0 287.4542 594.2528   L 279.9872 586.7858"></path>
    <path stroke="#224a65" stroke-opacity="0.518" vector-effect="non-scaling-stroke" d="   M 165.04 594.67   Q 165.04 594.75 165.06 594.83   Q 165.08 594.96 165.11 594.99   Q 170.13 600.04 172.62 602.51   A 0.50 0.49 -45.4 0 0 173.32 602.50   Q 176.46 599.28 180.63 595.15   Q 180.70 595.08 180.94 595.08   Q 181.19 595.08 181.26 595.15   Q 185.43 599.28 188.57 602.50   A 0.50 0.49 45.4 0 0 189.27 602.51   Q 191.76 600.03 196.78 594.98   Q 196.81 594.95 196.83 594.82   Q 196.85 594.74 196.85 594.66   Q 196.85 594.58 196.83 594.50   Q 196.81 594.37 196.78 594.34   Q 191.76 589.29 189.27 586.82   A 0.50 0.49 -45.4 0 0 188.57 586.83   Q 185.43 590.05 181.26 594.18   Q 181.19 594.25 180.94 594.25   Q 180.70 594.25 180.63 594.18   Q 176.46 590.05 173.32 586.83   A 0.50 0.49 45.4 0 0 172.62 586.82   Q 170.13 589.30 165.11 594.35   Q 165.08 594.38 165.06 594.51   Q 165.04 594.59 165.04 594.67"></path>
    <path stroke="#224a65" stroke-opacity="0.518" vector-effect="non-scaling-stroke" d="   M 822.56 556.26   Q 824.45 556.26 826.03 555.04   C 830.09 551.90 835.56 545.89 835.69 540.68   Q 835.78 537.14 833.46 534.00   C 831.25 531.00 826.52 526.36 822.46 526.37   C 818.40 526.39 813.70 531.06 811.51 534.07   Q 809.21 537.22 809.33 540.76   C 809.49 545.97 815.00 551.95 819.08 555.06   Q 820.66 556.27 822.56 556.26"></path>
    <path stroke="#224a65" stroke-opacity="0.518" vector-effect="non-scaling-stroke" d="   M 595.56 555.51   C 603.42 559.01 616.47 555.31 618.95 546.11   Q 619.86 542.75 618.80 537.08   Q 618.69 536.48 617.35 527.60   A 0.58 0.58 0.0 0 0 616.60 527.14   C 607.99 529.91 586.50 538.00 590.83 550.47   Q 592.03 553.94 595.56 555.51"></path>
    <path stroke="#224a65" stroke-opacity="0.518" vector-effect="non-scaling-stroke" d="   M 556.91 562.52   A 0.12 0.11 83.6 0 0 556.99 562.41   Q 557.05 552.10 553.14 544.38   C 548.95 536.13 538.06 535.15 533.48 543.74   Q 531.34 547.75 530.98 552.76   Q 530.46 560.07 536.38 562.81   C 542.58 565.69 550.47 564.63 556.91 562.52"></path>
    <path stroke="#224a65" stroke-opacity="0.518" vector-effect="non-scaling-stroke" d="   M 485.37 539.10   C 476.18 538.00 470.75 546.50 468.35 554.19   Q 468.19 554.71 468.55 555.12   Q 472.66 559.68 476.43 562.33   C 481.14 565.64 487.62 567.25 492.71 564.23   Q 496.55 561.95 497.16 557.00   C 498.16 549.04 494.17 540.15 485.37 539.10"></path>
  </g>
  <path fill="#000000" fill-opacity="0.035" d="   M 384.03 364.37   L 360.12 364.39   Q 347.49 338.32 346.20 309.63   Q 345.31 289.91 345.27 270.17   Q 345.22 244.92 338.95 220.53   L 339.00 196.30   A 0.45 0.45 0.0 0 0 338.40 195.88   L 299.73 209.94   A 0.71 0.71 0.0 0 0 299.26 210.61   Q 299.27 270.86 299.24 331.22   Q 299.24 339.11 299.57 343.27   C 300.64 356.56 303.39 370.90 310.85 382.24   Q 323.47 401.43 348.96 405.48   Q 372.25 408.03 401.69 408.06   Q 469.08 408.13 536.47 408.26   Q 556.66 408.30 575.95 403.02   Q 589.91 399.39 600.12 389.64   Q 600.49 389.29 600.82 389.67   Q 610.18 400.68 623.96 403.77   Q 627.38 404.54 628.97 405.22   Q 638.15 406.63 647.54 407.07   Q 652.41 407.30 658.45 406.37   Q 679.80 403.11 701.57 402.21   Q 714.42 406.97 729.52 405.55   Q 748.61 403.76 760.27 390.52   Q 760.66 390.08 761.05 390.51   Q 762.23 391.80 763.68 393.33   C 772.99 403.20 786.63 405.68 799.79 405.98   Q 812.15 406.26 823.54 405.49   Q 836.62 404.60 849.51 398.91   Q 870.48 389.65 879.02 368.23   Q 880.58 366.21 880.73 363.45   Q 882.91 356.30 883.77 350.25   Q 885.83 335.69 884.33 319.49   Q 882.40 298.65 875.40 278.62   A 0.46 0.46 0.0 0 0 874.85 278.33   L 838.50 287.44   A 0.59 0.59 0.0 0 0 838.07 288.16   Q 841.52 300.93 843.57 314.94   Q 845.18 325.96 844.94 336.50   Q 844.82 341.57 843.31 347.82   Q 840.24 360.45 827.79 363.00   Q 821.55 364.27 817.88 364.42   Q 814.22 364.57 803.59 364.50   Q 794.34 364.44 790.86 362.97   Q 783.54 359.86 780.53 351.44   Q 778.18 344.86 777.79 340.48   Q 776.87 330.16 774.30 300.42   A 0.47 0.47 0.0 0 0 773.78 299.99   L 736.96 304.26   A 1.19 1.19 0.0 0 0 735.92 305.59   Q 738.41 325.74 737.94 343.97   C 737.72 352.76 735.67 362.77 725.50 364.16   Q 720.16 364.89 715.12 363.46   Q 708.32 361.54 706.01 354.59   Q 704.69 350.59 704.52 348.29   Q 702.80 324.29 701.44 304.21   Q 701.37 303.12 700.29 303.25   L 663.53 307.51   A 0.64 0.64 0.0 0 0 662.96 308.22   Q 664.67 323.31 665.03 337.51   Q 665.17 343.39 663.74 349.25   C 661.13 359.95 654.27 364.15 643.64 364.53   Q 637.07 364.76 632.22 363.05   Q 625.00 360.52 622.94 352.85   Q 622.08 349.67 621.98 348.25   Q 620.41 326.41 618.92 304.20   A 1.03 1.03 0.0 0 0 617.77 303.24   L 581.55 307.44   Q 580.26 307.59 580.40 308.87   Q 581.87 322.30 582.41 333.08   Q 582.82 341.30 581.69 346.98   Q 579.87 356.15 571.34 360.54   Q 563.65 364.49 553.74 364.49   Q 545.54 364.50 537.27 364.41   Q 523.74 359.85 510.81 358.49   Q 502.23 357.59 490.09 357.47   Q 444.55 357.01 442.80 356.98   Q 433.62 356.77 425.36 356.13   Q 423.29 355.97 422.67 355.76   Q 420.61 355.07 422.80 354.88   Q 431.29 354.12 439.83 354.02   Q 454.42 353.84 496.91 353.89   Q 515.10 353.91 531.56 351.64   C 547.31 349.46 559.74 342.54 568.29 328.95   Q 575.33 317.77 579.39 309.27   Q 579.71 308.59 580.84 306.56   Q 581.56 305.28 583.10 304.62   C 598.65 298.01 611.33 295.45 627.01 299.81   Q 637.24 302.66 641.03 303.58   C 643.77 304.25 648.78 304.19 646.93 299.60   C 643.84 291.96 636.15 284.51 632.27 276.65   Q 626.48 264.96 625.05 250.27   Q 624.85 248.30 625.96 245.94   Q 634.89 226.88 645.25 210.42   Q 656.73 192.18 674.71 180.72   Q 675.65 180.12 677.07 179.51   Q 678.17 179.03 679.61 179.27   Q 681.15 179.54 689.10 181.24   Q 709.50 185.62 722.18 203.97   Q 733.21 219.94 739.52 235.71   Q 744.36 247.82 745.34 258.23   Q 746.38 269.13 747.46 274.77   C 749.26 284.17 755.96 288.65 764.68 291.64   C 777.77 296.13 788.64 300.28 795.94 310.92   Q 798.81 315.11 805.89 326.03   C 809.63 331.80 816.99 338.83 822.74 331.39   C 827.91 324.70 827.49 312.94 825.22 305.08   C 821.27 291.44 811.69 282.90 801.73 272.65   C 796.43 267.21 791.66 259.85 789.49 251.97   Q 787.29 243.92 787.31 238.61   Q 787.31 237.22 788.45 234.88   Q 789.23 233.25 790.49 231.66   Q 799.11 220.76 809.97 212.11   Q 810.28 211.86 812.75 209.36   Q 813.93 208.16 815.73 207.39   Q 816.20 207.18 816.71 207.28   Q 828.90 209.72 835.98 213.03   Q 846.45 217.93 847.90 229.18   C 848.84 236.51 849.63 242.44 856.58 246.47   Q 873.86 256.49 890.09 269.75   C 897.34 275.68 903.23 281.77 909.71 287.55   C 915.18 292.43 921.94 295.66 926.57 287.61   Q 928.87 283.61 930.00 280.18   Q 934.35 267.04 936.21 261.74   Q 940.66 249.02 949.99 234.89   Q 961.74 217.08 978.23 201.69   C 991.26 189.53 1010.39 176.44 1028.07 166.67   Q 1055.77 151.35 1088.74 138.02   Q 1113.06 128.19 1132.93 122.58   C 1160.92 114.69 1189.78 107.70 1214.85 103.64   Q 1239.83 99.59 1263.89 100.33   Q 1280.53 100.85 1297.25 106.07   C 1303.94 108.16 1312.54 112.25 1319.73 115.25   C 1327.69 118.57 1336.42 121.28 1344.38 124.23   C 1354.73 128.07 1362.83 132.51 1375.15 138.56   Q 1385.42 143.60 1390.46 146.97   C 1408.11 158.78 1420.98 175.08 1431.34 193.60   C 1460.18 245.18 1480.11 300.57 1491.48 358.03   Q 1495.37 377.69 1495.37 399.87   Q 1495.38 423.34 1494.92 436.20   Q 1494.15 457.63 1489.03 477.71   Q 1482.33 503.96 1473.47 524.72   Q 1466.51 541.01 1454.98 555.04   C 1440.21 573.01 1423.37 588.41 1403.38 603.29   Q 1378.20 622.03 1350.90 637.61   C 1325.46 652.13 1297.59 662.18 1269.30 669.58   Q 1265.83 670.49 1246.54 674.78   Q 1236.72 676.97 1227.15 679.70   Q 1206.98 685.48 1197.19 688.18   Q 1187.09 690.97 1176.78 692.77   Q 1159.52 695.78 1142.92 690.74   Q 1135.57 688.51 1126.63 684.74   Q 1104.74 675.51 1083.72 667.36   Q 1068.21 661.35 1052.17 653.34   Q 1028.17 641.35 1011.46 620.73   Q 999.15 605.54 989.02 588.88   C 973.91 564.04 960.16 537.95 949.42 512.79   C 942.52 496.61 938.14 485.80 932.02 472.73   C 926.93 461.87 922.98 453.99 921.30 443.64   Q 920.40 438.07 918.15 421.92   Q 917.62 418.11 915.61 413.06   C 910.29 399.65 896.92 404.56 887.58 409.38   Q 882.12 412.20 868.42 419.60   Q 861.23 423.48 850.26 427.15   C 835.05 432.24 818.38 433.50 802.37 432.55   Q 798.04 432.30 774.42 430.86   Q 762.92 430.16 741.71 431.46   Q 735.67 431.82 731.31 431.82   Q 724.52 431.80 720.88 431.71   Q 715.44 431.59 688.59 430.84   Q 686.67 430.79 681.96 430.72   Q 678.80 430.68 675.32 430.87   Q 654.28 431.98 647.03 431.97   Q 643.35 431.96 615.73 430.57   Q 609.51 430.25 594.35 430.98   Q 578.06 431.75 555.50 433.32   Q 542.23 434.25 518.97 434.45   Q 487.08 434.73 435.14 434.50   Q 404.09 434.37 377.28 433.44   Q 368.16 433.12 357.55 431.79   Q 339.47 429.51 324.65 420.84   Q 321.45 418.97 307.54 408.89   Q 303.93 406.28 299.06 404.22   C 290.40 400.56 282.90 402.82 275.18 407.66   Q 270.00 410.92 257.43 420.86   Q 243.19 432.11 224.90 439.02   Q 186.70 453.45 146.25 448.86   Q 136.70 447.77 126.47 445.60   Q 96.90 439.33 72.48 421.11   C 54.89 407.98 44.91 386.67 40.91 365.24   Q 38.21 350.75 38.40 330.96   C 38.61 308.87 41.20 286.07 52.82 267.08   Q 56.77 260.62 62.63 253.15   C 63.98 251.43 64.91 249.66 66.24 247.56   Q 66.51 247.13 67.02 247.11   Q 78.39 246.61 97.14 247.05   C 109.94 247.34 120.70 246.79 130.70 241.92   Q 140.88 236.97 147.24 234.12   Q 164.93 226.18 183.42 232.62   Q 188.58 234.41 200.13 238.73   Q 211.71 243.07 225.94 242.12   Q 237.32 241.36 255.54 239.57   C 267.47 238.40 277.73 236.10 285.92 227.05   Q 288.67 224.01 296.93 213.17   C 306.79 200.23 322.82 191.43 339.37 195.26   Q 356.34 199.19 362.53 217.34   Q 366.20 228.12 367.01 243.27   Q 367.89 259.85 367.94 288.60   Q 367.96 300.05 368.80 310.92   C 369.63 321.78 372.40 333.37 378.70 341.69   Q 380.91 344.61 386.36 351.29   C 390.34 356.16 387.82 360.37 384.03 364.37   Z   M 1118.80 190.19   L 1118.04 190.49   C 1095.78 197.50 1074.90 209.87 1055.98 223.41   Q 1049.72 227.89 1040.20 235.72   Q 1029.20 244.76 1018.37 253.88   Q 1010.97 254.15 1003.69 254.50   Q 997.61 254.80 994.94 255.73   C 986.74 258.60 981.87 267.38 983.54 275.75   Q 984.09 278.50 986.68 283.50   Q 988.61 287.23 990.54 291.00   Q 967.75 364.08 978.95 439.83   Q 982.46 463.61 990.48 488.51   Q 1004.22 531.19 1027.47 568.08   Q 1031.92 575.15 1039.58 584.89   Q 1051.94 600.59 1069.12 610.96   Q 1068.98 610.94 1069.27 611.23   Q 1075.02 617.56 1079.45 621.39   C 1094.45 634.34 1115.29 639.84 1135.74 642.00   Q 1164.33 645.02 1196.49 642.94   Q 1240.70 640.08 1282.82 625.11   C 1312.20 614.67 1339.92 600.91 1364.68 582.92   Q 1421.92 541.33 1437.73 471.69   Q 1442.57 450.41 1443.51 425.52   Q 1445.61 369.78 1430.07 317.28   Q 1420.07 283.50 1403.65 252.17   C 1394.70 235.08 1384.55 218.85 1371.92 205.33   Q 1355.01 187.21 1332.41 171.79   L 1328.36 163.32   Q 1328.14 162.87 1327.64 162.91   L 1301.31 165.00   Q 1288.01 162.87 1277.43 161.86   C 1245.81 158.84 1213.61 162.71 1179.96 169.59   Q 1155.58 174.58 1137.21 181.55   Q 1130.16 184.23 1118.80 190.19   Z   M 663.72 219.64   Q 661.13 224.91 655.49 226.28   L 653.16 224.08   Q 652.76 223.70 652.37 224.09   L 627.24 249.21   A 0.50 0.50 0.0 0 0 627.24 249.91   L 652.56 275.23   Q 652.82 275.49 653.08 275.23   L 677.63 250.68   A 0.62 0.61 -44.7 0 1 678.50 250.68   L 703.06 275.24   Q 703.41 275.59 703.76 275.24   L 729.02 249.98   A 0.44 0.43 45.5 0 0 729.02 249.37   L 709.72 230.03   Q 702.89 222.64 694.89 216.47   L 703.34 208.05   A 0.47 0.47 0.0 0 0 703.34 207.38   L 678.08 182.12   A 0.51 0.51 0.0 0 0 677.36 182.12   L 652.12 207.35   A 0.51 0.50 -45.4 0 0 652.12 208.06   L 663.72 219.64   Z   M 844.1698 237.3398   A 0.82 0.82 0.0 0 0 844.1698 236.1802   L 817.7098 209.7202   A 0.82 0.82 0.0 0 0 816.5502 209.7202   L 790.0902 236.1802   A 0.82 0.82 0.0 0 0 790.0902 237.3398   L 816.5502 263.7998   A 0.82 0.82 0.0 0 0 817.7098 263.7998   L 844.1698 237.3398   Z   M 158.85 286.53   A 0.69 0.69 0.0 0 0 159.84 286.54   L 186.43 259.97   A 0.69 0.69 0.0 0 0 186.45 259.00   L 159.64 230.76   A 0.69 0.69 0.0 0 0 158.65 230.75   L 132.06 257.32   A 0.69 0.69 0.0 0 0 132.04 258.29   L 158.85 286.53   Z   M 212.50 258.01   A 0.37 0.37 0.0 0 0 212.29 258.54   Q 217.88 268.68 221.87 278.43   Q 232.58 304.66 229.26 332.54   C 228.59 338.16 227.07 344.60 225.07 349.57   Q 216.47 370.89 193.98 377.97   Q 181.77 381.82 167.05 382.23   C 139.84 382.98 105.64 378.97 95.69 348.37   Q 92.04 337.14 92.29 324.24   Q 92.70 303.28 100.15 282.19   Q 103.12 273.78 106.45 266.16   A 0.60 0.59 22.1 0 0 106.11 265.36   L 68.04 250.91   Q 67.50 250.71 67.26 251.23   Q 57.48 271.90 52.85 292.31   Q 47.37 316.49 49.88 341.46   Q 51.37 356.28 56.56 368.87   Q 67.35 395.08 93.00 408.61   C 116.55 421.03 144.23 423.33 170.22 422.37   C 186.68 421.77 204.23 418.53 219.19 411.74   Q 259.24 393.54 270.34 349.87   C 271.96 343.50 273.01 335.71 273.22 329.02   C 274.15 299.98 266.84 271.08 254.61 244.52   A 0.16 0.16 0.0 0 0 254.42 244.44   L 212.50 258.01   Z   M 159.60 293.33   C 153.37 296.39 150.18 298.21 144.28 301.69   Q 139.18 304.71 136.68 306.95   Q 123.20 319.06 127.31 337.93   C 132.55 361.98 161.16 367.89 181.29 362.93   Q 205.42 356.99 210.24 333.49   Q 211.77 326.03 209.83 318.32   C 207.80 310.23 202.89 304.03 195.68 300.00   Q 186.54 294.88 176.54 292.05   C 170.53 290.35 165.41 290.47 159.60 293.33   Z"></path>
  <path fill="#020101" fill-opacity="0.078" d="   M 1301.31 165.00   Q 1240.26 169.95 1179.25 175.00   Q 1150.08 177.41 1118.80 190.19   Q 1130.16 184.23 1137.21 181.55   Q 1155.58 174.58 1179.96 169.59   C 1213.61 162.71 1245.81 158.84 1277.43 161.86   Q 1288.01 162.87 1301.31 165.00   Z"></path>
  <path fill="#ffffff" d="   M 1332.41 171.79   Q 1359.61 229.22 1386.81 286.68   Q 1392.74 299.22 1395.05 304.89   C 1415.51 355.32 1416.36 411.46 1397.48 462.72   Q 1397.27 463.29 1397.55 463.83   Q 1408.75 485.21 1412.74 493.20   C 1417.14 502.01 1413.41 512.36 1404.69 516.92   Q 1401.40 518.64 1392.44 519.01   Q 1385.33 519.31 1365.95 520.16   A 1.84 1.84 0.0 0 0 1364.60 520.85   C 1329.49 565.25 1278.70 594.05 1222.44 601.43   Q 1215.41 602.35 1202.52 603.15   Q 1135.89 607.28 1069.27 611.23   Q 1068.98 610.94 1069.12 610.96   Q 1039.31 551.40 1009.63 491.79   Q 1003.99 480.46 1001.20 473.74   C 979.42 421.29 978.97 362.74 999.91 310.18   A 1.53 1.53 0.0 0 0 999.85 308.91   L 990.54 291.00   Q 988.61 287.23 986.68 283.50   Q 984.09 278.50 983.54 275.75   C 981.87 267.38 986.74 258.60 994.94 255.73   Q 997.61 254.80 1003.69 254.50   Q 1010.97 254.15 1018.37 253.88   L 1032.88 253.14   Q 1033.38 253.11 1033.71 252.73   Q 1068.31 211.38 1118.04 190.49   L 1118.80 190.19   Q 1150.08 177.41 1179.25 175.00   Q 1240.26 169.95 1301.31 165.00   L 1327.64 162.91   Q 1328.14 162.87 1328.36 163.32   L 1332.41 171.79   Z   M 1003.37 273.54   Q 1003.03 273.25 1002.71 273.34   A 0.28 0.27 -22.2 0 0 1002.54 273.73   L 1020.47 308.31   Q 1020.70 308.77 1020.50 309.23   C 998.13 359.30 997.47 416.41 1018.50 466.85   Q 1021.02 472.90 1027.00 484.91   Q 1053.46 538.11 1080.29 591.89   Q 1139.75 588.37 1199.16 584.74   Q 1212.69 583.92 1219.09 583.10   C 1273.84 576.17 1322.75 547.05 1355.20 502.44   Q 1355.49 502.04 1355.99 502.02   L 1394.32 500.25   Q 1394.69 500.35 1394.94 500.30   Q 1395.50 500.17 1395.23 499.66   L 1377.09 464.66   A 1.07 1.07 0.0 0 1 1377.05 463.74   Q 1397.03 415.82 1391.13 363.84   Q 1387.47 331.55 1373.25 301.48   Q 1345.24 242.29 1316.95 182.44   Q 1253.71 187.48 1190.47 192.71   Q 1177.59 193.78 1170.62 194.88   C 1119.62 202.91 1074.47 229.91 1042.98 271.03   Q 1042.67 271.42 1042.18 271.44   Q 1010.29 272.80 1004.01 273.12   Q 1003.53 273.15 1003.37 273.54   Z"></path>
  <path fill="#020101" fill-opacity="0.078" d="   M 1069.27 611.23   Q 1135.89 607.28 1202.52 603.15   Q 1215.41 602.35 1222.44 601.43   C 1278.70 594.05 1329.49 565.25 1364.60 520.85   A 1.84 1.84 0.0 0 1 1365.95 520.16   Q 1385.33 519.31 1392.44 519.01   Q 1401.40 518.64 1404.69 516.92   C 1413.41 512.36 1417.14 502.01 1412.74 493.20   Q 1408.75 485.21 1397.55 463.83   Q 1397.27 463.29 1397.48 462.72   C 1416.36 411.46 1415.51 355.32 1395.05 304.89   Q 1392.74 299.22 1386.81 286.68   Q 1359.61 229.22 1332.41 171.79   Q 1355.01 187.21 1371.92 205.33   C 1384.55 218.85 1394.70 235.08 1403.65 252.17   Q 1420.07 283.50 1430.07 317.28   Q 1445.61 369.78 1443.51 425.52   Q 1442.57 450.41 1437.73 471.69   Q 1421.92 541.33 1364.68 582.92   C 1339.92 600.91 1312.20 614.67 1282.82 625.11   Q 1240.70 640.08 1196.49 642.94   Q 1164.33 645.02 1135.74 642.00   C 1115.29 639.84 1094.45 634.34 1079.45 621.39   Q 1075.02 617.56 1069.27 611.23   Z"></path>
  <path fill="#234d69" d="   M 694.89 216.47   L 678.10 233.27   A 0.55 0.55 0.0 0 1 677.32 233.27   L 663.72 219.64   L 652.12 208.06   A 0.51 0.50 -45.4 0 1 652.12 207.35   L 677.36 182.12   A 0.51 0.51 0.0 0 1 678.08 182.12   L 703.34 207.38   A 0.47 0.47 0.0 0 1 703.34 208.05   L 694.89 216.47   Z"></path>
  <path fill="#f05e60" d="   M 1316.95 182.44   L 1267.77 267.76   Q 1235.45 249.08 1198.75 248.58   Q 1160.03 248.05 1125.82 267.80   Q 1095.89 285.08 1076.95 316.47   L 1003.37 273.54   Q 1003.53 273.15 1004.01 273.12   Q 1010.29 272.80 1042.18 271.44   Q 1042.67 271.42 1042.98 271.03   C 1074.47 229.91 1119.62 202.91 1170.62 194.88   Q 1177.59 193.78 1190.47 192.71   Q 1253.71 187.48 1316.95 182.44   Z"></path>
  <path fill="#db5357" d="   M 1316.95 182.44   Q 1345.24 242.29 1373.25 301.48   Q 1387.47 331.55 1391.13 363.84   Q 1397.03 415.82 1377.05 463.74   A 1.07 1.07 0.0 0 0 1377.09 464.66   L 1395.23 499.66   Q 1395.50 500.17 1394.94 500.30   Q 1394.69 500.35 1394.32 500.25   Q 1394.14 499.64 1393.01 498.99   Q 1356.91 478.12 1320.64 457.19   Q 1340.87 420.86 1338.14 381.06   C 1334.88 333.52 1308.96 291.73 1267.77 267.76   L 1316.95 182.44   Z"></path>
  <path fill="#020101" fill-opacity="0.078" d="   M 1118.04 190.49   Q 1068.31 211.38 1033.71 252.73   Q 1033.38 253.11 1032.88 253.14   L 1018.37 253.88   Q 1029.20 244.76 1040.20 235.72   Q 1049.72 227.89 1055.98 223.41   C 1074.90 209.87 1095.78 197.50 1118.04 190.49   Z"></path>
  <path fill="#234d69" d="   M 338.95 220.53   Q 338.90 271.28 338.96 322.00   C 338.98 334.77 338.63 342.54 342.44 351.74   Q 347.12 363.01 360.12 364.39   L 384.03 364.37   L 537.27 364.41   Q 545.54 364.50 553.74 364.49   Q 563.65 364.49 571.34 360.54   Q 579.87 356.15 581.69 346.98   Q 582.82 341.30 582.41 333.08   Q 581.87 322.30 580.40 308.87   Q 580.26 307.59 581.55 307.44   L 617.77 303.24   A 1.03 1.03 0.0 0 1 618.92 304.20   Q 620.41 326.41 621.98 348.25   Q 622.08 349.67 622.94 352.85   Q 625.00 360.52 632.22 363.05   Q 637.07 364.76 643.64 364.53   C 654.27 364.15 661.13 359.95 663.74 349.25   Q 665.17 343.39 665.03 337.51   Q 664.67 323.31 662.96 308.22   A 0.64 0.64 0.0 0 1 663.53 307.51   L 700.29 303.25   Q 701.37 303.12 701.44 304.21   Q 702.80 324.29 704.52 348.29   Q 704.69 350.59 706.01 354.59   Q 708.32 361.54 715.12 363.46   Q 720.16 364.89 725.50 364.16   C 735.67 362.77 737.72 352.76 737.94 343.97   Q 738.41 325.74 735.92 305.59   A 1.19 1.19 0.0 0 1 736.96 304.26   L 773.78 299.99   A 0.47 0.47 0.0 0 1 774.30 300.42   Q 776.87 330.16 777.79 340.48   Q 778.18 344.86 780.53 351.44   Q 783.54 359.86 790.86 362.97   Q 794.34 364.44 803.59 364.50   Q 814.22 364.57 817.88 364.42   Q 821.55 364.27 827.79 363.00   Q 840.24 360.45 843.31 347.82   Q 844.82 341.57 844.94 336.50   Q 845.18 325.96 843.57 314.94   Q 841.52 300.93 838.07 288.16   A 0.59 0.59 0.0 0 1 838.50 287.44   L 874.85 278.33   A 0.46 0.46 0.0 0 1 875.40 278.62   Q 882.40 298.65 884.33 319.49   Q 885.83 335.69 883.77 350.25   Q 882.91 356.30 880.73 363.45   L 879.02 368.23   Q 870.48 389.65 849.51 398.91   Q 836.62 404.60 823.54 405.49   Q 812.15 406.26 799.79 405.98   C 786.63 405.68 772.99 403.20 763.68 393.33   Q 762.23 391.80 761.05 390.51   Q 760.66 390.08 760.27 390.52   Q 748.61 403.76 729.52 405.55   Q 714.42 406.97 701.57 402.21   Q 691.43 397.73 684.54 389.12   Q 684.23 388.73 683.88 389.08   Q 669.73 403.35 650.50 405.47   Q 641.32 406.48 628.97 405.22   Q 627.38 404.54 623.96 403.77   Q 610.18 400.68 600.82 389.67   Q 600.49 389.29 600.12 389.64   Q 589.91 399.39 575.95 403.02   Q 563.15 406.04 550.75 406.09   Q 485.86 406.32 377.75 406.18   Q 363.00 406.16 348.96 405.48   Q 323.47 401.43 310.85 382.24   C 303.39 370.90 300.64 356.56 299.57 343.27   Q 299.24 339.11 299.24 331.22   Q 299.27 270.86 299.26 210.61   A 0.71 0.71 0.0 0 1 299.73 209.94   L 338.40 195.88   A 0.45 0.45 0.0 0 1 339.00 196.30   L 338.95 220.53   Z"></path>
  <rect fill="#234d69" x="-19.53" y="-19.53" transform="translate(817.13,236.76) rotate(45.0)" width="39.06" height="39.06" rx="0.82"></rect>
  <path fill="#020101" fill-opacity="0.078" d="   M 709.72 230.03   L 703.78 223.99   A 0.43 0.43 0.0 0 0 703.16 223.99   L 678.58 248.57   Q 678.14 249.00 677.71 248.57   L 655.49 226.28   Q 661.13 224.91 663.72 219.64   L 677.32 233.27   A 0.55 0.55 0.0 0 0 678.10 233.27   L 694.89 216.47   Q 702.89 222.64 709.72 230.03   Z"></path>
  <path fill="#020101" fill-opacity="0.078" d="   M 360.12 364.39   Q 347.12 363.01 342.44 351.74   C 338.63 342.54 338.98 334.77 338.96 322.00   Q 338.90 271.28 338.95 220.53   Q 345.22 244.92 345.27 270.17   Q 345.31 289.91 346.20 309.63   Q 347.49 338.32 360.12 364.39   Z"></path>
  <path fill="#234d69" d="   M 655.49 226.28   L 677.71 248.57   Q 678.14 249.00 678.58 248.57   L 703.16 223.99   A 0.43 0.43 0.0 0 1 703.78 223.99   L 709.72 230.03   L 729.02 249.37   A 0.44 0.43 45.5 0 1 729.02 249.98   L 703.76 275.24   Q 703.41 275.59 703.06 275.24   L 678.50 250.68   A 0.62 0.61 -44.7 0 0 677.63 250.68   L 653.08 275.23   Q 652.82 275.49 652.56 275.23   L 627.24 249.91   A 0.50 0.50 0.0 0 1 627.24 249.21   L 652.37 224.09   Q 652.76 223.70 653.16 224.08   L 655.49 226.28   Z"></path>
  <path fill="#234d69" d="   M 158.85 286.53   L 132.04 258.29   A 0.69 0.69 0.0 0 1 132.06 257.32   L 158.65 230.75   A 0.69 0.69 0.0 0 1 159.64 230.76   L 186.45 259.00   A 0.69 0.69 0.0 0 1 186.43 259.97   L 159.84 286.54   A 0.69 0.69 0.0 0 1 158.85 286.53   Z"></path>
  <path fill="#234d69" d="   M 212.50 258.01   L 254.42 244.44   A 0.16 0.16 0.0 0 1 254.61 244.52   C 266.84 271.08 274.15 299.98 273.22 329.02   C 273.01 335.71 271.96 343.50 270.34 349.87   Q 259.24 393.54 219.19 411.74   C 204.23 418.53 186.68 421.77 170.22 422.37   C 144.23 423.33 116.55 421.03 93.00 408.61   Q 67.35 395.08 56.56 368.87   Q 51.37 356.28 49.88 341.46   Q 47.37 316.49 52.85 292.31   Q 57.48 271.90 67.26 251.23   Q 67.50 250.71 68.04 250.91   L 106.11 265.36   A 0.60 0.59 22.1 0 1 106.45 266.16   Q 103.12 273.78 100.15 282.19   Q 92.70 303.28 92.29 324.24   Q 92.04 337.14 95.69 348.37   C 105.64 378.97 139.84 382.98 167.05 382.23   Q 181.77 381.82 193.98 377.97   Q 216.47 370.89 225.07 349.57   C 227.07 344.60 228.59 338.16 229.26 332.54   Q 232.58 304.66 221.87 278.43   Q 217.88 268.68 212.29 258.54   A 0.37 0.37 0.0 0 1 212.50 258.01   Z"></path>
  <path fill="#ffffff" d="   M 1267.77 267.76   C 1308.96 291.73 1334.88 333.52 1338.14 381.06   Q 1340.87 420.86 1320.64 457.19   Q 1296.56 500.52 1250.04 517.99   Q 1232.48 524.59 1216.00 527.55   Q 1188.23 532.53 1157.50 533.82   Q 1135.74 534.74 1113.12 535.49   Q 1103.19 517.20 1093.41 498.31   C 1082.17 476.58 1071.44 453.54 1064.30 429.32   Q 1058.09 408.22 1057.60 387.81   Q 1056.85 356.74 1070.68 328.19   Q 1073.76 321.84 1076.95 316.47   Q 1095.89 285.08 1125.82 267.80   Q 1160.03 248.05 1198.75 248.58   Q 1235.45 249.08 1267.77 267.76   Z   M 1118.60 340.39   C 1110.01 355.27 1107.74 373.28 1115.09 389.10   Q 1115.31 389.57 1115.05 390.02   Q 1108.80 400.91 1102.32 412.06   Q 1102.09 412.45 1102.15 412.65   Q 1102.20 412.85 1102.59 413.07   Q 1113.78 419.49 1124.63 425.80   Q 1125.08 426.06 1125.13 426.58   C 1126.67 443.95 1137.64 458.42 1152.52 467.01   C 1167.39 475.60 1185.40 477.87 1201.22 470.52   Q 1201.69 470.30 1202.14 470.56   Q 1213.03 476.81 1224.18 483.29   Q 1224.57 483.52 1224.77 483.47   Q 1224.98 483.42 1225.20 483.02   Q 1231.62 471.84 1237.93 460.98   Q 1238.19 460.53 1238.70 460.49   C 1256.08 458.95 1270.54 447.98 1279.14 433.10   C 1287.73 418.22 1290.00 400.21 1282.65 384.39   Q 1282.43 383.92 1282.69 383.47   Q 1288.94 372.58 1295.42 361.43   Q 1295.65 361.04 1295.59 360.84   Q 1295.54 360.64 1295.15 360.42   Q 1283.96 354.00 1273.11 347.69   Q 1272.66 347.43 1272.61 346.91   C 1271.07 329.54 1260.10 315.07 1245.22 306.48   C 1230.34 297.89 1212.33 295.62 1196.51 302.97   Q 1196.04 303.19 1195.59 302.93   Q 1184.70 296.68 1173.55 290.20   Q 1173.16 289.97 1172.96 290.02   Q 1172.76 290.07 1172.54 290.47   Q 1166.12 301.65 1159.81 312.51   Q 1159.55 312.96 1159.04 313.00   C 1141.66 314.54 1127.20 325.51 1118.60 340.39   Z"></path>
  <path fill="#234d69" d="   M 1003.37 273.54   L 1076.95 316.47   Q 1073.76 321.84 1070.68 328.19   Q 1056.85 356.74 1057.60 387.81   Q 1058.09 408.22 1064.30 429.32   C 1071.44 453.54 1082.17 476.58 1093.41 498.31   Q 1103.19 517.20 1113.12 535.49   L 1080.29 591.89   Q 1053.46 538.11 1027.00 484.91   Q 1021.02 472.90 1018.50 466.85   C 997.47 416.41 998.13 359.30 1020.50 309.23   Q 1020.70 308.77 1020.47 308.31   L 1002.54 273.73   A 0.28 0.27 -22.2 0 1 1002.71 273.34   Q 1003.03 273.25 1003.37 273.54   Z"></path>
  <path fill="#38ba9b" d="   M 1172.96 290.02   Q 1173.16 289.97 1173.55 290.20   Q 1184.70 296.68 1195.59 302.93   Q 1196.04 303.19 1196.51 302.97   C 1212.33 295.62 1230.34 297.89 1245.22 306.48   C 1260.10 315.07 1271.07 329.54 1272.61 346.91   Q 1272.66 347.43 1273.11 347.69   Q 1283.96 354.00 1295.15 360.42   Q 1295.54 360.64 1295.59 360.84   Q 1295.65 361.04 1295.42 361.43   Q 1288.94 372.58 1282.69 383.47   Q 1282.43 383.92 1282.65 384.39   C 1290.00 400.21 1287.73 418.22 1279.14 433.10   C 1270.54 447.98 1256.08 458.95 1238.70 460.49   Q 1238.19 460.53 1237.93 460.98   Q 1231.62 471.84 1225.20 483.02   Q 1224.98 483.42 1224.77 483.47   Q 1224.57 483.52 1224.18 483.29   Q 1213.03 476.81 1202.14 470.56   Q 1201.69 470.30 1201.22 470.52   C 1185.40 477.87 1167.39 475.60 1152.52 467.01   C 1137.64 458.42 1126.67 443.95 1125.13 426.58   Q 1125.08 426.06 1124.63 425.80   Q 1113.78 419.49 1102.59 413.07   Q 1102.20 412.85 1102.15 412.65   Q 1102.09 412.45 1102.32 412.06   Q 1108.80 400.91 1115.05 390.02   Q 1115.31 389.57 1115.09 389.10   C 1107.74 373.28 1110.01 355.27 1118.60 340.39   C 1127.20 325.51 1141.66 314.54 1159.04 313.00   Q 1159.55 312.96 1159.81 312.51   Q 1166.12 301.65 1172.54 290.47   Q 1172.76 290.07 1172.96 290.02   Z"></path>
  <path fill="#020101" fill-opacity="0.078" d="   M 990.54 291.00   L 999.85 308.91   A 1.53 1.53 0.0 0 1 999.91 310.18   C 978.97 362.74 979.42 421.29 1001.20 473.74   Q 1003.99 480.46 1009.63 491.79   Q 1039.31 551.40 1069.12 610.96   Q 1051.94 600.59 1039.58 584.89   Q 1031.92 575.15 1027.47 568.08   Q 1004.22 531.19 990.48 488.51   Q 982.46 463.61 978.95 439.83   Q 967.75 364.08 990.54 291.00   Z"></path>
  <path fill="#020101" fill-opacity="0.078" d="   M 879.02 368.23   L 880.73 363.45   Q 880.58 366.21 879.02 368.23   Z"></path>
  <path fill="#020101" fill-opacity="0.078" d="   M 701.57 402.21   Q 679.80 403.11 658.45 406.37   Q 652.41 407.30 647.54 407.07   Q 638.15 406.63 628.97 405.22   Q 641.32 406.48 650.50 405.47   Q 669.73 403.35 683.88 389.08   Q 684.23 388.73 684.54 389.12   Q 691.43 397.73 701.57 402.21   Z"></path>
  <path fill="#020101" fill-opacity="0.078" d="   M 575.95 403.02   Q 556.66 408.30 536.47 408.26   Q 469.08 408.13 401.69 408.06   Q 372.25 408.03 348.96 405.48   Q 363.00 406.16 377.75 406.18   Q 485.86 406.32 550.75 406.09   Q 563.15 406.04 575.95 403.02   Z"></path>
  <path fill="#173f58" d="   M 1320.64 457.19   Q 1356.91 478.12 1393.01 498.99   Q 1394.14 499.64 1394.32 500.25   L 1355.99 502.02   Q 1355.49 502.04 1355.20 502.44   C 1322.75 547.05 1273.84 576.17 1219.09 583.10   Q 1212.69 583.92 1199.16 584.74   Q 1139.75 588.37 1080.29 591.89   L 1113.12 535.49   Q 1135.74 534.74 1157.50 533.82   Q 1188.23 532.53 1216.00 527.55   Q 1232.48 524.59 1250.04 517.99   Q 1296.56 500.52 1320.64 457.19   Z"></path>
  <path fill="#000000" fill-opacity="0.035" d="   M 866.47 499.32   Q 866.16 498.90 865.85 498.71   Q 865.42 498.44 865.06 498.80   L 857.63 506.23   A 0.47 0.47 0.0 0 0 857.63 506.90   L 865.18 514.45   Q 865.51 514.78 865.84 514.45   L 873.31 506.98   Q 873.70 506.59 873.31 506.20   L 867.93 500.80   Q 879.97 507.70 886.48 512.91   Q 896.24 520.72 899.55 534.35   Q 904.31 553.98 894.22 571.95   C 886.49 585.74 874.56 593.06 859.42 595.94   C 844.88 598.70 830.81 598.90 816.05 598.92   Q 761.26 599.00 699.84 598.84   Q 677.47 598.79 663.28 597.31   Q 650.72 596.01 631.00 593.70   C 614.07 591.73 597.95 592.61 584.05 600.97   Q 579.71 603.58 569.49 610.31   C 560.25 616.39 549.32 619.48 539.09 614.25   Q 538.20 613.79 526.39 607.44   Q 521.29 604.70 511.67 602.65   C 495.01 599.09 476.87 598.90 460.97 598.90   Q 444.37 598.90 368.35 599.02   C 351.98 599.04 333.13 599.54 316.08 604.29   C 310.09 605.96 303.21 609.00 295.31 612.24   C 283.43 617.11 271.51 619.45 257.47 620.50   Q 234.44 622.23 212.66 623.02   C 200.36 623.46 187.61 621.28 176.65 615.06   C 170.52 611.58 162.82 606.14 156.32 603.87   Q 145.80 600.20 134.35 601.28   Q 114.19 603.19 102.85 604.16   Q 100.13 604.39 97.84 603.60   C 72.14 594.75 44.08 581.60 46.92 549.20   Q 47.40 543.72 49.92 534.72   Q 48.25 542.67 49.62 549.09   C 53.39 566.84 72.61 571.50 88.47 572.11   Q 101.95 572.62 114.92 571.64   Q 128.12 570.65 137.26 566.98   Q 147.85 562.73 149.45 550.71   Q 150.92 539.70 147.29 529.27   Q 147.21 529.02 146.95 529.08   L 140.38 530.73   A 0.34 0.33 76.2 0 0 140.14 531.14   Q 142.06 539.26 142.02 545.31   C 141.98 552.49 139.55 557.32 132.81 559.82   Q 127.01 561.97 120.49 562.75   Q 106.61 564.41 91.99 563.97   Q 79.34 563.60 71.63 560.64   Q 51.92 553.07 58.61 530.69   Q 72.73 535.69 88.29 541.76   Q 95.31 544.49 104.55 545.26   C 118.85 546.45 130.86 537.98 139.49 526.47   Q 149.81 512.70 157.52 500.18   Q 157.82 499.68 158.06 499.06   Q 158.24 498.59 158.72 498.48   Q 160.04 498.16 161.31 498.44   L 159.02 499.27   Q 158.53 499.44 158.53 499.96   Q 158.48 545.62 158.61 549.50   Q 158.78 554.20 160.05 558.72   C 162.61 567.82 169.72 572.01 179.03 572.25   Q 186.77 572.46 193.91 570.16   C 200.94 567.89 205.18 560.98 206.30 553.98   Q 208.20 542.10 204.44 529.32   Q 204.36 529.04 204.07 529.11   L 197.49 530.76   Q 197.18 530.84 197.26 531.14   Q 198.61 536.63 199.19 543.76   C 199.63 549.23 198.91 556.24 194.76 560.26   Q 192.53 562.43 188.31 563.27   C 181.04 564.73 172.40 564.84 168.58 557.39   Q 166.14 552.63 166.07 547.72   Q 165.89 535.81 166.03 509.36   Q 177.19 507.81 186.72 513.88   Q 193.90 518.46 198.26 521.30   Q 205.37 525.91 210.07 528.15   C 231.76 538.44 255.57 540.85 279.29 541.12   Q 280.13 548.50 279.28 553.50   C 277.36 564.78 264.22 563.93 255.74 564.03   Q 250.64 564.08 248.43 563.08   Q 242.35 560.32 240.06 553.44   Q 238.38 548.41 236.68 542.73   Q 236.48 542.05 235.82 542.29   L 229.76 544.50   Q 229.09 544.74 229.37 545.39   Q 232.41 552.56 233.25 558.99   Q 236.01 580.06 218.70 591.19   Q 215.22 593.42 208.46 595.84   A 0.44 0.43 66.0 0 0 208.23 596.45   L 211.20 602.18   Q 211.48 602.72 212.05 602.54   C 226.51 598.05 237.67 588.24 240.33 572.88   Q 240.68 570.85 241.11 567.73   Q 241.19 567.17 241.66 567.44   Q 241.70 567.47 243.03 568.98   Q 245.71 572.05 251.25 572.16   Q 261.42 572.36 264.74 572.18   Q 276.43 571.54 283.33 562.94   Q 283.89 562.24 284.26 563.05   Q 286.86 568.85 292.56 571.11   Q 295.27 572.19 303.30 572.22   Q 319.62 572.30 339.69 572.23   Q 348.40 572.19 352.05 570.91   Q 358.46 568.66 362.37 563.02   Q 362.70 562.55 363.03 563.03   C 364.06 564.56 365.00 566.40 366.54 567.83   Q 370.85 571.82 377.80 572.28   Q 389.84 573.08 397.10 563.48   Q 397.67 562.73 398.09 563.57   Q 401.69 570.85 409.63 572.04   Q 422.43 573.95 428.70 562.71   Q 429.27 561.69 429.74 562.77   Q 432.64 569.48 438.78 571.29   Q 444.56 573.00 450.37 571.91   C 456.21 570.82 459.96 567.30 464.15 562.84   Q 464.53 562.43 464.92 562.83   C 470.68 568.60 476.22 572.70 484.55 573.60   C 494.21 574.65 502.57 570.50 504.22 560.49   Q 505.77 551.10 502.78 543.78   Q 499.22 535.05 492.19 532.07   Q 482.34 527.90 473.41 533.83   Q 471.24 535.27 468.63 538.66   Q 465.66 542.52 464.83 544.35   Q 462.33 549.82 460.01 554.03   Q 457.41 558.76 453.31 561.55   Q 447.68 565.38 440.96 563.44   Q 435.36 561.83 433.15 556.11   C 430.90 550.27 431.07 546.23 430.41 538.06   Q 430.39 537.73 430.05 537.76   L 423.55 538.52   Q 423.25 538.55 423.28 538.86   Q 424.03 544.72 423.74 551.00   C 423.41 558.27 420.08 564.73 411.71 563.97   Q 405.31 563.39 402.61 558.50   Q 401.02 555.59 400.65 549.10   Q 400.38 544.53 399.96 539.46   A 0.36 0.36 0.0 0 0 399.55 539.13   L 393.27 539.86   Q 393.06 539.88 393.07 540.09   Q 393.35 545.70 393.51 547.57   Q 393.85 551.71 392.36 555.65   Q 389.35 563.65 380.50 563.99   Q 371.16 564.35 367.92 557.31   Q 366.56 554.34 366.33 548.54   Q 366.15 544.00 365.73 539.54   A 0.44 0.44 0.0 0 0 365.24 539.14   L 359.18 539.84   Q 358.75 539.89 358.77 540.33   Q 358.94 543.07 359.18 546.35   Q 360.07 558.46 351.19 562.34   Q 347.43 563.98 336.57 563.99   Q 311.16 564.02 303.67 564.02   Q 296.97 564.03 294.09 562.60   Q 288.07 559.63 287.23 551.53   Q 286.77 547.10 286.53 539.52   Q 286.46 537.23 285.28 537.82   L 285.47 537.12   Q 285.62 536.58 286.16 536.76   C 298.45 540.99 312.57 545.24 325.25 545.48   Q 336.36 545.69 347.52 542.35   Q 352.55 540.84 360.57 537.99   Q 363.51 536.94 366.53 536.85   Q 379.89 536.44 414.15 535.90   Q 427.28 535.69 434.13 535.06   Q 448.40 533.74 455.16 532.28   C 469.73 529.12 479.79 526.85 492.55 525.74   Q 498.27 525.24 505.93 525.22   C 529.04 525.15 550.22 525.82 569.97 524.17   Q 582.72 523.10 594.22 520.12   Q 604.91 517.35 612.55 514.80   Q 615.48 513.83 618.55 513.95   Q 621.78 514.08 625.15 513.97   Q 625.73 513.95 626.20 514.29   Q 639.11 523.61 651.17 534.15   Q 666.17 547.26 686.78 545.06   Q 696.72 544.00 701.03 543.19   Q 701.64 548.21 701.02 552.51   C 699.85 560.65 692.29 564.06 684.50 564.03   Q 656.23 563.92 643.81 564.09   Q 637.53 564.17 634.57 562.54   Q 628.70 559.31 627.73 552.50   Q 625.31 535.58 622.66 516.23   A 0.73 0.60 -10.7 0 0 621.80 515.76   L 616.41 516.91   Q 615.75 517.05 615.80 517.78   Q 615.82 518.07 615.91 519.46   Q 615.94 519.97 615.45 520.09   Q 603.54 523.24 593.83 529.58   C 586.20 534.56 581.12 541.92 582.73 551.27   Q 583.86 557.84 589.80 561.31   Q 596.09 564.99 604.56 564.38   Q 614.11 563.69 620.76 556.57   Q 621.14 556.17 621.36 556.68   C 621.94 558.05 622.14 560.01 622.51 561.02   Q 626.48 571.85 637.35 572.16   Q 641.98 572.29 681.46 572.19   Q 690.53 572.17 694.14 570.91   Q 700.76 568.59 704.70 562.82   Q 704.94 562.47 705.13 562.85   Q 708.91 570.53 717.09 571.90   Q 731.03 574.24 739.36 563.44   Q 739.73 562.95 740.04 563.48   Q 743.85 570.02 749.49 571.50   Q 763.62 575.22 771.05 562.50   Q 771.52 561.70 771.87 562.56   Q 775.34 571.20 784.67 572.05   Q 792.88 572.80 802.70 571.43   Q 813.56 569.93 821.78 564.01   Q 822.21 563.71 822.63 564.01   Q 833.34 571.66 847.27 572.10   Q 858.15 572.44 862.68 572.12   Q 880.80 570.85 883.57 553.40   Q 885.36 542.17 881.71 529.59   Q 881.55 529.05 881.00 529.19   L 875.00 530.69   Q 874.44 530.83 874.56 531.40   Q 876.49 540.90 876.48 546.26   C 876.48 553.41 874.77 560.36 867.46 562.89   Q 864.46 563.93 857.59 564.02   C 848.81 564.14 840.27 564.22 832.08 560.97   Q 831.24 560.63 831.98 560.12   Q 836.54 556.95 839.55 552.61   C 846.65 542.36 843.88 529.76 834.07 522.26   Q 826.02 516.10 817.90 518.76   Q 814.73 519.79 811.47 522.42   C 806.55 526.38 802.27 531.39 801.79 537.97   Q 801.02 548.50 808.19 555.80   Q 809.31 556.94 813.02 560.45   Q 813.34 560.75 812.94 560.93   Q 807.75 563.22 801.18 563.64   Q 793.72 564.11 788.50 564.05   Q 783.99 563.99 781.80 563.05   C 776.69 560.83 774.16 555.01 773.58 549.73   Q 773.05 544.85 772.61 538.64   Q 772.54 537.70 771.61 537.81   L 766.22 538.44   Q 765.33 538.54 765.44 539.43   Q 766.16 545.02 765.92 550.97   C 765.59 558.74 761.67 565.21 752.85 563.83   Q 743.78 562.41 743.03 551.82   Q 742.27 541.13 742.22 539.53   Q 742.21 539.08 741.76 539.13   L 735.54 539.85   Q 735.17 539.89 735.19 540.27   Q 735.84 551.12 735.34 553.04   Q 732.06 565.46 719.51 563.92   Q 710.07 562.76 708.89 552.73   Q 708.54 549.70 707.97 539.76   Q 707.94 539.21 707.39 539.27   L 700.99 539.93   C 709.58 525.99 716.99 511.63 723.85 499.33   Q 725.76 495.90 728.43 493.27   Q 730.93 490.80 734.63 487.35   Q 735.00 487.01 735.47 487.17   C 746.07 490.84 755.28 495.23 763.00 503.66   Q 765.50 506.40 772.63 515.09   Q 773.85 516.57 776.12 518.46   C 786.41 527.03 794.18 518.34 798.54 509.12   Q 801.41 503.05 803.29 496.22   L 810.73 503.65   A 0.62 0.61 44.7 0 0 811.60 503.65   L 818.87 496.38   A 0.68 0.68 0.0 0 0 818.87 495.42   L 811.63 488.18   Q 811.29 487.84 810.88 488.09   Q 809.75 488.75 808.92 490.04   Q 808.88 488.55 809.60 487.33   Q 809.85 486.89 810.36 486.86   C 822.78 485.98 834.93 486.40 846.76 490.22   Q 855.85 493.16 865.77 497.61   Q 866.24 497.82 866.32 498.33   L 866.47 499.32   Z   M 835.6030 496.1782   A 0.54 0.54 0.0 0 0 835.6016 495.4146   L 828.1782 488.0170   A 0.54 0.54 0.0 0 0 827.4146 488.0184   L 820.0170 495.4418   A 0.54 0.54 0.0 0 0 820.0184 496.2054   L 827.4418 503.6030   A 0.54 0.54 0.0 0 0 828.2054 503.6016   L 835.6030 496.1782   Z   M 735.0278 490.2944   A 0.44 0.44 0.0 0 0 734.4055 490.2922   L 727.0544 497.5922   A 0.44 0.44 0.0 0 0 727.0522 498.2145   L 734.3522 505.5656   A 0.44 0.44 0.0 0 0 734.9745 505.5678   L 742.3256 498.2678   A 0.44 0.44 0.0 0 0 742.3278 497.6455   L 735.0278 490.2944   Z   M 726.4319 505.7086   A 0.46 0.46 0.0 0 0 725.7813 505.7063   L 718.4586 512.9781   A 0.46 0.46 0.0 0 0 718.4563 513.6287   L 725.7281 520.9514   A 0.46 0.46 0.0 0 0 726.3787 520.9537   L 733.7014 513.6819   A 0.46 0.46 0.0 0 0 733.7037 513.0313   L 726.4319 505.7086   Z   M 743.6663 505.7793   A 0.57 0.57 0.0 0 0 742.8602 505.7779   L 735.6493 512.9637   A 0.57 0.57 0.0 0 0 735.6479 513.7698   L 742.8337 520.9807   A 0.57 0.57 0.0 0 0 743.6398 520.9821   L 750.8507 513.7963   A 0.57 0.57 0.0 0 0 750.8521 512.9902   L 743.6663 505.7793   Z   M 557.51 571.87   Q 554.49 584.57 543.31 591.27   Q 535.67 595.85 525.38 597.94   Q 524.86 598.05 525.04 598.54   L 527.20 604.50   A 0.55 0.55 0.0 0 0 527.82 604.85   C 546.53 601.19 561.23 591.10 563.95 571.03   Q 566.05 555.49 560.10 541.04   Q 556.04 531.17 547.18 529.49   Q 541.83 528.48 537.04 530.31   Q 532.08 532.19 528.86 537.10   Q 522.85 546.28 523.68 557.12   Q 524.06 562.18 526.20 565.26   Q 529.12 569.45 533.31 570.75   Q 540.20 572.87 546.03 572.45   Q 550.53 572.13 556.96 571.27   A 0.50 0.49 2.8 0 1 557.51 571.87   Z   M 101.8182 586.6975   A 0.45 0.45 0.0 0 0 101.1818 586.6975   L 93.5875 594.2918   A 0.45 0.45 0.0 0 0 93.5875 594.9282   L 101.1818 602.5225   A 0.45 0.45 0.0 0 0 101.8182 602.5225   L 109.4125 594.9282   A 0.45 0.45 0.0 0 0 109.4125 594.2918   L 101.8182 586.6975   Z   M 270.8942 594.9706   A 0.51 0.51 0.0 0 0 270.8942 594.2494   L 263.3706 586.7258   A 0.51 0.51 0.0 0 0 262.6494 586.7258   L 255.1258 594.2494   A 0.51 0.51 0.0 0 0 255.1258 594.9706   L 262.6494 602.4942   A 0.51 0.51 0.0 0 0 263.3706 602.4942   L 270.8942 594.9706   Z   M 279.9872 586.7858   A 0.59 0.59 0.0 0 0 279.1528 586.7858   L 271.6858 594.2528   A 0.59 0.59 0.0 0 0 271.6858 595.0872   L 279.1528 602.5542   A 0.59 0.59 0.0 0 0 279.9872 602.5542   L 287.4542 595.0872   A 0.59 0.59 0.0 0 0 287.4542 594.2528   L 279.9872 586.7858   Z   M 165.04 594.67   Q 165.04 594.75 165.06 594.83   Q 165.08 594.96 165.11 594.99   Q 170.13 600.04 172.62 602.51   A 0.50 0.49 -45.4 0 0 173.32 602.50   Q 176.46 599.28 180.63 595.15   Q 180.70 595.08 180.94 595.08   Q 181.19 595.08 181.26 595.15   Q 185.43 599.28 188.57 602.50   A 0.50 0.49 45.4 0 0 189.27 602.51   Q 191.76 600.03 196.78 594.98   Q 196.81 594.95 196.83 594.82   Q 196.85 594.74 196.85 594.66   Q 196.85 594.58 196.83 594.50   Q 196.81 594.37 196.78 594.34   Q 191.76 589.29 189.27 586.82   A 0.50 0.49 -45.4 0 0 188.57 586.83   Q 185.43 590.05 181.26 594.18   Q 181.19 594.25 180.94 594.25   Q 180.70 594.25 180.63 594.18   Q 176.46 590.05 173.32 586.83   A 0.50 0.49 45.4 0 0 172.62 586.82   Q 170.13 589.30 165.11 594.35   Q 165.08 594.38 165.06 594.51   Q 165.04 594.59 165.04 594.67   Z"></path>
  <path fill="#234d69" d="   M 803.29 496.22   L 808.92 490.04   Q 809.75 488.75 810.88 488.09   Q 811.29 487.84 811.63 488.18   L 818.87 495.42   A 0.68 0.68 0.0 0 1 818.87 496.38   L 811.60 503.65   A 0.62 0.61 44.7 0 1 810.73 503.65   L 803.29 496.22   Z"></path>
  <rect fill="#234d69" x="-5.78" y="-5.78" transform="translate(827.81,495.81) rotate(44.9)" width="11.56" height="11.56" rx="0.54"></rect>
  <rect fill="#234d69" x="-5.62" y="-5.62" transform="translate(734.69,497.93) rotate(-44.8)" width="11.24" height="11.24" rx="0.44"></rect>
  <path fill="#234d69" d="   M 166.03 509.36   Q 165.89 535.81 166.07 547.72   Q 166.14 552.63 168.58 557.39   C 172.40 564.84 181.04 564.73 188.31 563.27   Q 192.53 562.43 194.76 560.26   C 198.91 556.24 199.63 549.23 199.19 543.76   Q 198.61 536.63 197.26 531.14   Q 197.18 530.84 197.49 530.76   L 204.07 529.11   Q 204.36 529.04 204.44 529.32   Q 208.20 542.10 206.30 553.98   C 205.18 560.98 200.94 567.89 193.91 570.16   Q 186.77 572.46 179.03 572.25   C 169.72 572.01 162.61 567.82 160.05 558.72   Q 158.78 554.20 158.61 549.50   Q 158.48 545.62 158.53 499.96   Q 158.53 499.44 159.02 499.27   L 161.31 498.44   L 165.40 497.37   Q 165.90 497.24 165.91 497.76   L 166.03 509.36   Z"></path>
  <path fill="#234d69" d="   M 866.47 499.32   L 867.93 500.80   L 873.31 506.20   Q 873.70 506.59 873.31 506.98   L 865.84 514.45   Q 865.51 514.78 865.18 514.45   L 857.63 506.90   A 0.47 0.47 0.0 0 1 857.63 506.23   L 865.06 498.80   Q 865.42 498.44 865.85 498.71   Q 866.16 498.90 866.47 499.32   Z"></path>
  <rect fill="#234d69" x="-5.62" y="-5.62" transform="translate(726.08,513.33) rotate(-44.8)" width="11.24" height="11.24" rx="0.46"></rect>
  <rect fill="#234d69" x="-5.66" y="-5.66" transform="translate(743.25,513.38) rotate(-44.9)" width="11.32" height="11.32" rx="0.57"></rect>
  <path fill="#234d69" d="   M 701.03 543.19   L 700.99 539.93   L 707.39 539.27   Q 707.94 539.21 707.97 539.76   Q 708.54 549.70 708.89 552.73   Q 710.07 562.76 719.51 563.92   Q 732.06 565.46 735.34 553.04   Q 735.84 551.12 735.19 540.27   Q 735.17 539.89 735.54 539.85   L 741.76 539.13   Q 742.21 539.08 742.22 539.53   Q 742.27 541.13 743.03 551.82   Q 743.78 562.41 752.85 563.83   C 761.67 565.21 765.59 558.74 765.92 550.97   Q 766.16 545.02 765.44 539.43   Q 765.33 538.54 766.22 538.44   L 771.61 537.81   Q 772.54 537.70 772.61 538.64   Q 773.05 544.85 773.58 549.73   C 774.16 555.01 776.69 560.83 781.80 563.05   Q 783.99 563.99 788.50 564.05   Q 793.72 564.11 801.18 563.64   Q 807.75 563.22 812.94 560.93   Q 813.34 560.75 813.02 560.45   Q 809.31 556.94 808.19 555.80   Q 801.02 548.50 801.79 537.97   C 802.27 531.39 806.55 526.38 811.47 522.42   Q 814.73 519.79 817.90 518.76   Q 826.02 516.10 834.07 522.26   C 843.88 529.76 846.65 542.36 839.55 552.61   Q 836.54 556.95 831.98 560.12   Q 831.24 560.63 832.08 560.97   C 840.27 564.22 848.81 564.14 857.59 564.02   Q 864.46 563.93 867.46 562.89   C 874.77 560.36 876.48 553.41 876.48 546.26   Q 876.49 540.90 874.56 531.40   Q 874.44 530.83 875.00 530.69   L 881.00 529.19   Q 881.55 529.05 881.71 529.59   Q 885.36 542.17 883.57 553.40   Q 880.80 570.85 862.68 572.12   Q 858.15 572.44 847.27 572.10   Q 833.34 571.66 822.63 564.01   Q 822.21 563.71 821.78 564.01   Q 813.56 569.93 802.70 571.43   Q 792.88 572.80 784.67 572.05   Q 775.34 571.20 771.87 562.56   Q 771.52 561.70 771.05 562.50   Q 763.62 575.22 749.49 571.50   Q 743.85 570.02 740.04 563.48   Q 739.73 562.95 739.36 563.44   Q 731.03 574.24 717.09 571.90   Q 708.91 570.53 705.13 562.85   Q 704.94 562.47 704.70 562.82   Q 700.76 568.59 694.14 570.91   Q 690.53 572.17 681.46 572.19   Q 641.98 572.29 637.35 572.16   Q 626.48 571.85 622.51 561.02   C 622.14 560.01 621.94 558.05 621.36 556.68   Q 621.14 556.17 620.76 556.57   Q 614.11 563.69 604.56 564.38   Q 596.09 564.99 589.80 561.31   Q 583.86 557.84 582.73 551.27   C 581.12 541.92 586.20 534.56 593.83 529.58   Q 603.54 523.24 615.45 520.09   Q 615.94 519.97 615.91 519.46   Q 615.82 518.07 615.80 517.78   Q 615.75 517.05 616.41 516.91   L 621.80 515.76   A 0.73 0.60 -10.7 0 1 622.66 516.23   Q 625.31 535.58 627.73 552.50   Q 628.70 559.31 634.57 562.54   Q 637.53 564.17 643.81 564.09   Q 656.23 563.92 684.50 564.03   C 692.29 564.06 699.85 560.65 701.02 552.51   Q 701.64 548.21 701.03 543.19   Z   M 822.56 556.26   Q 824.45 556.26 826.03 555.04   C 830.09 551.90 835.56 545.89 835.69 540.68   Q 835.78 537.14 833.46 534.00   C 831.25 531.00 826.52 526.36 822.46 526.37   C 818.40 526.39 813.70 531.06 811.51 534.07   Q 809.21 537.22 809.33 540.76   C 809.49 545.97 815.00 551.95 819.08 555.06   Q 820.66 556.27 822.56 556.26   Z   M 595.56 555.51   C 603.42 559.01 616.47 555.31 618.95 546.11   Q 619.86 542.75 618.80 537.08   Q 618.69 536.48 617.35 527.60   A 0.58 0.58 0.0 0 0 616.60 527.14   C 607.99 529.91 586.50 538.00 590.83 550.47   Q 592.03 553.94 595.56 555.51   Z"></path>
  <path fill="#000000" fill-opacity="0.035" d="   M 822.46 526.37   C 826.52 526.36 831.25 531.00 833.46 534.00   Q 835.78 537.14 835.69 540.68   C 835.56 545.89 830.09 551.90 826.03 555.04   Q 824.45 556.26 822.56 556.26   Q 820.66 556.27 819.08 555.06   C 815.00 551.95 809.49 545.97 809.33 540.76   Q 809.21 537.22 811.51 534.07   C 813.70 531.06 818.40 526.39 822.46 526.37   Z"></path>
  <path fill="#000000" fill-opacity="0.035" d="   M 618.95 546.11   C 616.47 555.31 603.42 559.01 595.56 555.51   Q 592.03 553.94 590.83 550.47   C 586.50 538.00 607.99 529.91 616.60 527.14   A 0.58 0.58 0.0 0 1 617.35 527.60   Q 618.69 536.48 618.80 537.08   Q 619.86 542.75 618.95 546.11   Z"></path>
  <path fill="#234d69" d="   M 58.61 530.69   Q 51.92 553.07 71.63 560.64   Q 79.34 563.60 91.99 563.97   Q 106.61 564.41 120.49 562.75   Q 127.01 561.97 132.81 559.82   C 139.55 557.32 141.98 552.49 142.02 545.31   Q 142.06 539.26 140.14 531.14   A 0.34 0.33 76.2 0 1 140.38 530.73   L 146.95 529.08   Q 147.21 529.02 147.29 529.27   Q 150.92 539.70 149.45 550.71   Q 147.85 562.73 137.26 566.98   Q 128.12 570.65 114.92 571.64   Q 101.95 572.62 88.47 572.11   C 72.61 571.50 53.39 566.84 49.62 549.09   Q 48.25 542.67 49.92 534.72   L 51.64 529.11   Q 51.80 528.61 52.30 528.76   L 58.61 530.69   Z"></path>
  <path fill="#234d69" d="   M 557.51 571.87   A 0.50 0.49 2.8 0 0 556.96 571.27   Q 550.53 572.13 546.03 572.45   Q 540.20 572.87 533.31 570.75   Q 529.12 569.45 526.20 565.26   Q 524.06 562.18 523.68 557.12   Q 522.85 546.28 528.86 537.10   Q 532.08 532.19 537.04 530.31   Q 541.83 528.48 547.18 529.49   Q 556.04 531.17 560.10 541.04   Q 566.05 555.49 563.95 571.03   C 561.23 591.10 546.53 601.19 527.82 604.85   A 0.55 0.55 0.0 0 1 527.20 604.50   L 525.04 598.54   Q 524.86 598.05 525.38 597.94   Q 535.67 595.85 543.31 591.27   Q 554.49 584.57 557.51 571.87   Z   M 556.91 562.52   A 0.12 0.11 83.6 0 0 556.99 562.41   Q 557.05 552.10 553.14 544.38   C 548.95 536.13 538.06 535.15 533.48 543.74   Q 531.34 547.75 530.98 552.76   Q 530.46 560.07 536.38 562.81   C 542.58 565.69 550.47 564.63 556.91 562.52   Z"></path>
  <path fill="#234d69" d="   M 279.29 541.12   Q 279.09 540.04 279.34 539.04   Q 279.47 538.54 279.98 538.48   L 285.28 537.82   Q 286.46 537.23 286.53 539.52   Q 286.77 547.10 287.23 551.53   Q 288.07 559.63 294.09 562.60   Q 296.97 564.03 303.67 564.02   Q 311.16 564.02 336.57 563.99   Q 347.43 563.98 351.19 562.34   Q 360.07 558.46 359.18 546.35   Q 358.94 543.07 358.77 540.33   Q 358.75 539.89 359.18 539.84   L 365.24 539.14   A 0.44 0.44 0.0 0 1 365.73 539.54   Q 366.15 544.00 366.33 548.54   Q 366.56 554.34 367.92 557.31   Q 371.16 564.35 380.50 563.99   Q 389.35 563.65 392.36 555.65   Q 393.85 551.71 393.51 547.57   Q 393.35 545.70 393.07 540.09   Q 393.06 539.88 393.27 539.86   L 399.55 539.13   A 0.36 0.36 0.0 0 1 399.96 539.46   Q 400.38 544.53 400.65 549.10   Q 401.02 555.59 402.61 558.50   Q 405.31 563.39 411.71 563.97   C 420.08 564.73 423.41 558.27 423.74 551.00   Q 424.03 544.72 423.28 538.86   Q 423.25 538.55 423.55 538.52   L 430.05 537.76   Q 430.39 537.73 430.41 538.06   C 431.07 546.23 430.90 550.27 433.15 556.11   Q 435.36 561.83 440.96 563.44   Q 447.68 565.38 453.31 561.55   Q 457.41 558.76 460.01 554.03   Q 462.33 549.82 464.83 544.35   Q 465.66 542.52 468.63 538.66   Q 471.24 535.27 473.41 533.83   Q 482.34 527.90 492.19 532.07   Q 499.22 535.05 502.78 543.78   Q 505.77 551.10 504.22 560.49   C 502.57 570.50 494.21 574.65 484.55 573.60   C 476.22 572.70 470.68 568.60 464.92 562.83   Q 464.53 562.43 464.15 562.84   C 459.96 567.30 456.21 570.82 450.37 571.91   Q 444.56 573.00 438.78 571.29   Q 432.64 569.48 429.74 562.77   Q 429.27 561.69 428.70 562.71   Q 422.43 573.95 409.63 572.04   Q 401.69 570.85 398.09 563.57   Q 397.67 562.73 397.10 563.48   Q 389.84 573.08 377.80 572.28   Q 370.85 571.82 366.54 567.83   C 365.00 566.40 364.06 564.56 363.03 563.03   Q 362.70 562.55 362.37 563.02   Q 358.46 568.66 352.05 570.91   Q 348.40 572.19 339.69 572.23   Q 319.62 572.30 303.30 572.22   Q 295.27 572.19 292.56 571.11   Q 286.86 568.85 284.26 563.05   Q 283.89 562.24 283.33 562.94   Q 276.43 571.54 264.74 572.18   Q 261.42 572.36 251.25 572.16   Q 245.71 572.05 243.03 568.98   Q 241.70 567.47 241.66 567.44   Q 241.19 567.17 241.11 567.73   Q 240.68 570.85 240.33 572.88   C 237.67 588.24 226.51 598.05 212.05 602.54   Q 211.48 602.72 211.20 602.18   L 208.23 596.45   A 0.44 0.43 66.0 0 1 208.46 595.84   Q 215.22 593.42 218.70 591.19   Q 236.01 580.06 233.25 558.99   Q 232.41 552.56 229.37 545.39   Q 229.09 544.74 229.76 544.50   L 235.82 542.29   Q 236.48 542.05 236.68 542.73   Q 238.38 548.41 240.06 553.44   Q 242.35 560.32 248.43 563.08   Q 250.64 564.08 255.74 564.03   C 264.22 563.93 277.36 564.78 279.28 553.50   Q 280.13 548.50 279.29 541.12   Z   M 485.37 539.10   C 476.18 538.00 470.75 546.50 468.35 554.19   Q 468.19 554.71 468.55 555.12   Q 472.66 559.68 476.43 562.33   C 481.14 565.64 487.62 567.25 492.71 564.23   Q 496.55 561.95 497.16 557.00   C 498.16 549.04 494.17 540.15 485.37 539.10   Z"></path>
  <path fill="#000000" fill-opacity="0.035" d="   M 556.91 562.52   C 550.47 564.63 542.58 565.69 536.38 562.81   Q 530.46 560.07 530.98 552.76   Q 531.34 547.75 533.48 543.74   C 538.06 535.15 548.95 536.13 553.14 544.38   Q 557.05 552.10 556.99 562.41   A 0.12 0.11 83.6 0 1 556.91 562.52   Z"></path>
  <path fill="#000000" fill-opacity="0.035" d="   M 485.37 539.10   C 494.17 540.15 498.16 549.04 497.16 557.00   Q 496.55 561.95 492.71 564.23   C 487.62 567.25 481.14 565.64 476.43 562.33   Q 472.66 559.68 468.55 555.12   Q 468.19 554.71 468.35 554.19   C 470.75 546.50 476.18 538.00 485.37 539.10   Z"></path>
  <rect fill="#234d69" x="-5.82" y="-5.82" transform="translate(101.50,594.61) rotate(-45.0)" width="11.64" height="11.64" rx="0.45"></rect>
  <rect fill="#234d69" x="-5.83" y="-5.83" transform="translate(263.01,594.61) rotate(45.0)" width="11.66" height="11.66" rx="0.51"></rect>
  <rect fill="#234d69" x="-5.87" y="-5.87" transform="translate(279.57,594.67) rotate(-45.0)" width="11.74" height="11.74" rx="0.59"></rect>
  <path fill="#234d69" d="   M 180.94 594.25   Q 181.19 594.25 181.26 594.18   Q 185.43 590.05 188.57 586.83   A 0.50 0.49 -45.4 0 1 189.27 586.82   Q 191.76 589.29 196.78 594.34   Q 196.81 594.37 196.83 594.50   Q 196.85 594.58 196.85 594.66   Q 196.85 594.74 196.83 594.82   Q 196.81 594.95 196.78 594.98   Q 191.76 600.03 189.27 602.51   A 0.50 0.49 45.4 0 1 188.57 602.50   Q 185.43 599.28 181.26 595.15   Q 181.19 595.08 180.94 595.08   Q 180.70 595.08 180.63 595.15   Q 176.46 599.28 173.32 602.50   A 0.50 0.49 -45.4 0 1 172.62 602.51   Q 170.13 600.04 165.11 594.99   Q 165.08 594.96 165.06 594.83   Q 165.04 594.75 165.04 594.67   Q 165.04 594.59 165.06 594.51   Q 165.08 594.38 165.11 594.35   Q 170.13 589.30 172.62 586.82   A 0.50 0.49 45.4 0 1 173.32 586.83   Q 176.46 590.05 180.63 594.18   Q 180.70 594.25 180.94 594.25   Z"></path>
</svg>
